<svg xmlns="http://www.w3.org/2000/svg" xmlns:xlink="http://www.w3.org/1999/xlink" width="500" zoomAndPan="magnify" viewBox="0 0 375 374.999991" height="500" preserveAspectRatio="xMidYMid meet" version="1.0"><defs><clipPath id="0c038af5a3"><path d="M 79 14.0625 L 269 14.0625 L 269 225 L 79 225 Z M 79 14.0625 " clip-rule="nonzero"/></clipPath><clipPath id="c633eee351"><path d="M 228 348 L 233 348 L 233 361.3125 L 228 361.3125 Z M 228 348 " clip-rule="nonzero"/></clipPath></defs><path fill="#ffffff" d="M 0.0117188 192.3125 L 99.855469 124.054688 L 197.796875 267.625 L 97.953125 335.882812 Z M 0.0117188 192.3125 " fill-opacity="1" fill-rule="nonzero"/><path fill="#000000" d="M 55.050781 250.417969 L 55.433594 250.15625 L 58.335938 254.410156 L 57.953125 254.671875 Z M 55.050781 250.417969 " fill-opacity="1" fill-rule="nonzero"/><path fill="#000000" d="M 72.039062 238.800781 L 72.421875 238.539062 L 75.320312 242.796875 L 74.9375 243.058594 Z M 72.039062 238.800781 " fill-opacity="1" fill-rule="nonzero"/><path fill="#000000" d="M 89 227.195312 L 89.386719 226.929688 L 92.292969 231.183594 L 91.90625 231.445312 Z M 89 227.195312 " fill-opacity="1" fill-rule="nonzero"/><path fill="#000000" d="M 105.984375 215.601562 L 106.367188 215.339844 L 109.269531 219.59375 L 108.886719 219.855469 Z M 105.984375 215.601562 " fill-opacity="1" fill-rule="nonzero"/><path fill="#000000" d="M 122.960938 203.96875 L 123.347656 203.707031 L 126.246094 207.964844 L 125.859375 208.226562 Z M 122.960938 203.96875 " fill-opacity="1" fill-rule="nonzero"/><path fill="#000000" d="M 139.941406 192.367188 L 140.324219 192.101562 L 143.230469 196.355469 L 142.84375 196.621094 Z M 139.941406 192.367188 " fill-opacity="1" fill-rule="nonzero"/><path fill="#231f20" d="M 13.453125 189.703125 L 14.066406 189.285156 L 60.410156 257.214844 L 59.792969 257.636719 Z M 13.453125 189.703125 " fill-opacity="1" fill-rule="nonzero"/><path fill="#231f20" d="M 52.621094 254.714844 L 142.074219 193.558594 L 142.496094 194.175781 L 53.042969 255.332031 Z M 52.621094 254.714844 " fill-opacity="1" fill-rule="nonzero"/><path fill="#231f20" d="M 47.960938 247.882812 L 137.414062 186.726562 L 137.65625 187.085938 L 48.203125 248.242188 Z M 47.960938 247.882812 " fill-opacity="1" fill-rule="nonzero"/><path fill="#231f20" d="M 43.210938 240.925781 L 132.664062 179.769531 L 132.90625 180.125 L 43.453125 241.28125 Z M 43.210938 240.925781 " fill-opacity="1" fill-rule="nonzero"/><path fill="#231f20" d="M 38.460938 233.964844 L 127.917969 172.808594 L 128.160156 173.164062 L 38.707031 234.320312 Z M 38.460938 233.964844 " fill-opacity="1" fill-rule="nonzero"/><path fill="#231f20" d="M 33.710938 227 L 123.164062 165.84375 L 123.410156 166.203125 L 33.953125 227.359375 Z M 33.710938 227 " fill-opacity="1" fill-rule="nonzero"/><path fill="#231f20" d="M 28.960938 220.042969 L 118.417969 158.882812 L 118.660156 159.242188 L 29.207031 220.398438 Z M 28.960938 220.042969 " fill-opacity="1" fill-rule="nonzero"/><path fill="#231f20" d="M 24.210938 213.078125 L 113.664062 151.921875 L 113.90625 152.28125 L 24.453125 213.4375 Z M 24.210938 213.078125 " fill-opacity="1" fill-rule="nonzero"/><path fill="#231f20" d="M 19.464844 206.117188 L 108.917969 144.960938 L 109.160156 145.320312 L 19.707031 206.476562 Z M 19.464844 206.117188 " fill-opacity="1" fill-rule="nonzero"/><path fill="#231f20" d="M 14.710938 199.15625 L 104.164062 138 L 104.410156 138.355469 L 14.957031 199.511719 Z M 14.710938 199.15625 " fill-opacity="1" fill-rule="nonzero"/><path fill="#a1a1a1" d="M 63.839844 251.851562 L 73.058594 245.550781 L 74.460938 247.605469 L 65.242188 253.910156 Z M 63.839844 251.851562 " fill-opacity="1" fill-rule="nonzero"/><path fill="#a1a1a1" d="M 43.324219 249.8125 L 46.082031 247.925781 L 47.484375 249.984375 L 44.726562 251.871094 Z M 43.324219 249.8125 " fill-opacity="1" fill-rule="nonzero"/><path fill="#a1a1a1" d="M 38.574219 242.839844 L 41.332031 240.953125 L 42.738281 243.007812 L 39.976562 244.894531 Z M 38.574219 242.839844 " fill-opacity="1" fill-rule="nonzero"/><path fill="#a1a1a1" d="M 33.8125 235.886719 L 36.574219 234 L 37.976562 236.058594 L 35.21875 237.945312 Z M 33.8125 235.886719 " fill-opacity="1" fill-rule="nonzero"/><path fill="#a1a1a1" d="M 29.0625 228.925781 L 31.820312 227.039062 L 33.226562 229.097656 L 30.464844 230.984375 Z M 29.0625 228.925781 " fill-opacity="1" fill-rule="nonzero"/><path fill="#a1a1a1" d="M 24.316406 221.964844 L 27.074219 220.078125 L 28.476562 222.136719 L 25.71875 224.023438 Z M 24.316406 221.964844 " fill-opacity="1" fill-rule="nonzero"/><path fill="#a1a1a1" d="M 19.566406 215 L 22.324219 213.113281 L 23.726562 215.171875 L 20.96875 217.058594 Z M 19.566406 215 " fill-opacity="1" fill-rule="nonzero"/><path fill="#a1a1a1" d="M 14.816406 208.039062 L 17.578125 206.152344 L 18.980469 208.210938 L 16.21875 210.09375 Z M 14.816406 208.039062 " fill-opacity="1" fill-rule="nonzero"/><path fill="#a1a1a1" d="M 10.078125 201.078125 L 12.835938 199.191406 L 14.238281 201.25 L 11.480469 203.136719 Z M 10.078125 201.078125 " fill-opacity="1" fill-rule="nonzero"/><path fill="#a1a1a1" d="M 61.898438 271.6875 L 95.144531 248.957031 L 97 251.679688 L 63.753906 274.40625 Z M 61.898438 271.6875 " fill-opacity="1" fill-rule="nonzero"/><path fill="#a1a1a1" d="M 66.449219 278.355469 L 99.695312 255.621094 L 101.550781 258.339844 L 68.304688 281.074219 Z M 66.449219 278.355469 " fill-opacity="1" fill-rule="nonzero"/><path fill="#a1a1a1" d="M 71 285.027344 L 104.246094 262.292969 L 106.101562 265.011719 L 72.855469 287.746094 Z M 71 285.027344 " fill-opacity="1" fill-rule="nonzero"/><path fill="#a1a1a1" d="M 75.558594 291.707031 L 108.804688 268.976562 L 110.660156 271.695312 L 77.414062 294.425781 Z M 75.558594 291.707031 " fill-opacity="1" fill-rule="nonzero"/><path fill="#a1a1a1" d="M 80.105469 298.371094 L 113.351562 275.640625 L 115.203125 278.355469 L 81.957031 301.089844 Z M 80.105469 298.371094 " fill-opacity="1" fill-rule="nonzero"/><path fill="#a1a1a1" d="M 84.664062 305.050781 L 117.910156 282.320312 L 119.765625 285.042969 L 86.519531 307.769531 Z M 84.664062 305.050781 " fill-opacity="1" fill-rule="nonzero"/><path fill="#a1a1a1" d="M 89.214844 311.730469 L 122.460938 289 L 124.316406 291.714844 L 91.070312 314.445312 Z M 89.214844 311.730469 " fill-opacity="1" fill-rule="nonzero"/><path fill="#a1a1a1" d="M 93.769531 318.398438 L 127.019531 295.667969 L 128.875 298.386719 L 95.625 321.117188 Z M 93.769531 318.398438 " fill-opacity="1" fill-rule="nonzero"/><path fill="#a1a1a1" d="M 98.320312 325.074219 L 131.566406 302.34375 L 133.421875 305.0625 L 100.175781 327.792969 Z M 98.320312 325.074219 " fill-opacity="1" fill-rule="nonzero"/><path fill="#a1a1a1" d="M 99.578125 245.917969 L 125.902344 227.917969 L 127.757812 230.636719 L 101.433594 248.636719 Z M 99.578125 245.917969 " fill-opacity="1" fill-rule="nonzero"/><path fill="#a1a1a1" d="M 123.421875 239.410156 L 158.230469 215.609375 L 160.085938 218.332031 L 125.277344 242.128906 Z M 123.421875 239.410156 " fill-opacity="1" fill-rule="nonzero"/><path fill="#a1a1a1" d="M 108.6875 259.269531 L 162.78125 222.285156 L 164.636719 225.003906 L 110.539062 261.984375 Z M 108.6875 259.269531 " fill-opacity="1" fill-rule="nonzero"/><path fill="#a1a1a1" d="M 113.242188 265.941406 L 154.5625 237.691406 L 156.414062 240.410156 L 115.09375 268.65625 Z M 113.242188 265.941406 " fill-opacity="1" fill-rule="nonzero"/><path fill="#a1a1a1" d="M 125.402344 267.414062 L 161.152344 242.972656 L 163.007812 245.691406 L 127.257812 270.132812 Z M 125.402344 267.414062 " fill-opacity="1" fill-rule="nonzero"/><path fill="#a1a1a1" d="M 122.34375 279.285156 L 169.757812 246.871094 L 171.613281 249.59375 L 124.199219 282.007812 Z M 122.34375 279.285156 " fill-opacity="1" fill-rule="nonzero"/><path fill="#a1a1a1" d="M 128.390625 284.941406 L 180.996094 248.976562 L 182.847656 251.691406 L 130.242188 287.65625 Z M 128.390625 284.941406 " fill-opacity="1" fill-rule="nonzero"/><path fill="#a1a1a1" d="M 131.453125 292.632812 L 185.546875 255.648438 L 187.402344 258.367188 L 133.308594 295.351562 Z M 131.453125 292.632812 " fill-opacity="1" fill-rule="nonzero"/><path fill="#a1a1a1" d="M 139.3125 297.042969 L 186.789062 264.585938 L 188.644531 267.304688 L 141.167969 299.761719 Z M 139.3125 297.042969 " fill-opacity="1" fill-rule="nonzero"/><path fill="#231f20" d="M 36.425781 202.835938 L 37.421875 202.152344 L 63.53125 240.425781 L 62.53125 241.105469 Z M 36.425781 202.835938 " fill-opacity="1" fill-rule="nonzero"/><path fill="#a1a1a1" d="M 79.757812 240.964844 L 88.976562 234.664062 L 90.378906 236.722656 L 81.164062 243.023438 Z M 79.757812 240.964844 " fill-opacity="1" fill-rule="nonzero"/><path fill="#231f20" d="M 51.25 190.34375 L 52.25 189.660156 L 76.105469 224.632812 L 75.109375 225.316406 Z M 51.25 190.34375 " fill-opacity="1" fill-rule="nonzero"/><path fill="#a1a1a1" d="M 96.363281 229.617188 L 105.582031 223.316406 L 106.984375 225.371094 L 97.765625 231.671875 Z M 96.363281 229.617188 " fill-opacity="1" fill-rule="nonzero"/><path fill="#231f20" d="M 66.460938 176.953125 L 67.460938 176.269531 L 91.320312 211.242188 L 90.320312 211.925781 Z M 66.460938 176.953125 " fill-opacity="1" fill-rule="nonzero"/><path fill="#a1a1a1" d="M 113.429688 217.941406 L 122.648438 211.640625 L 124.050781 213.699219 L 114.835938 220 Z M 113.429688 217.941406 " fill-opacity="1" fill-rule="nonzero"/><path fill="#231f20" d="M 88.882812 173.128906 L 89.882812 172.445312 L 113.738281 207.421875 L 112.742188 208.101562 Z M 88.882812 173.128906 " fill-opacity="1" fill-rule="nonzero"/><path fill="#a1a1a1" d="M 130.578125 206.195312 L 139.792969 199.894531 L 141.199219 201.949219 L 131.980469 208.253906 Z M 130.578125 206.195312 " fill-opacity="1" fill-rule="nonzero"/><path fill="#231f20" d="M 105.402344 160.5 L 106.402344 159.816406 L 130.265625 194.789062 L 129.265625 195.472656 Z M 105.402344 160.5 " fill-opacity="1" fill-rule="nonzero"/><path fill="#00e950" d="M 43.863281 216.769531 L 47.691406 214.152344 L 60.253906 232.566406 L 56.425781 235.183594 Z M 43.863281 216.769531 " fill-opacity="1" fill-rule="nonzero"/><path fill="#00e950" d="M 55.183594 199.152344 L 59.007812 196.535156 L 68.496094 210.4375 L 64.667969 213.050781 Z M 55.183594 199.152344 " fill-opacity="1" fill-rule="nonzero"/><path fill="#00e950" d="M 67.539062 181.554688 L 71.367188 178.941406 L 80.160156 191.832031 L 76.335938 194.449219 Z M 67.539062 181.554688 " fill-opacity="1" fill-rule="nonzero"/><path fill="#00e950" d="M 93.59375 183.085938 L 97.417969 180.46875 L 105.238281 191.929688 L 101.414062 194.546875 Z M 93.59375 183.085938 " fill-opacity="1" fill-rule="nonzero"/><path fill="#00e950" d="M 114.792969 177.308594 L 118.617188 174.691406 L 131.183594 193.105469 L 127.355469 195.722656 Z M 114.792969 177.308594 " fill-opacity="1" fill-rule="nonzero"/><g clip-path="url(#0c038af5a3)"><path fill="#ffffff" d="M 79.191406 72.007812 L 185.382812 14.136719 L 268.417969 166.835938 L 162.226562 224.707031 Z M 79.191406 72.007812 " fill-opacity="1" fill-rule="nonzero"/></g><path fill="#a1a1a1" d="M 125.59375 148.148438 L 160.957031 128.878906 L 162.527344 131.773438 L 127.167969 151.042969 Z M 125.59375 148.148438 " fill-opacity="1" fill-rule="nonzero"/><path fill="#a1a1a1" d="M 129.457031 155.246094 L 164.816406 135.976562 L 166.390625 138.871094 L 131.03125 158.140625 Z M 129.457031 155.246094 " fill-opacity="1" fill-rule="nonzero"/><path fill="#a1a1a1" d="M 133.316406 162.34375 L 168.675781 143.070312 L 170.25 145.964844 L 134.886719 165.234375 Z M 133.316406 162.34375 " fill-opacity="1" fill-rule="nonzero"/><path fill="#a1a1a1" d="M 137.171875 169.441406 L 172.535156 150.171875 L 174.109375 153.066406 L 138.746094 172.335938 Z M 137.171875 169.441406 " fill-opacity="1" fill-rule="nonzero"/><path fill="#a1a1a1" d="M 141.03125 176.539062 L 176.390625 157.269531 L 177.964844 160.164062 L 142.605469 179.433594 Z M 141.03125 176.539062 " fill-opacity="1" fill-rule="nonzero"/><path fill="#a1a1a1" d="M 144.894531 183.636719 L 180.253906 164.367188 L 181.828125 167.257812 L 146.464844 186.527344 Z M 144.894531 183.636719 " fill-opacity="1" fill-rule="nonzero"/><path fill="#a1a1a1" d="M 148.75 190.734375 L 184.113281 171.464844 L 185.683594 174.355469 L 150.324219 193.625 Z M 148.75 190.734375 " fill-opacity="1" fill-rule="nonzero"/><path fill="#a1a1a1" d="M 152.609375 197.828125 L 187.96875 178.558594 L 189.542969 181.449219 L 154.179688 200.71875 Z M 152.609375 197.828125 " fill-opacity="1" fill-rule="nonzero"/><path fill="#a1a1a1" d="M 156.46875 204.929688 L 191.828125 185.660156 L 193.402344 188.550781 L 158.042969 207.820312 Z M 156.46875 204.929688 " fill-opacity="1" fill-rule="nonzero"/><path fill="#a1a1a1" d="M 165.675781 126.308594 L 193.675781 111.050781 L 195.25 113.941406 L 167.25 129.203125 Z M 165.675781 126.308594 " fill-opacity="1" fill-rule="nonzero"/><path fill="#a1a1a1" d="M 190.050781 122.226562 L 227.074219 102.050781 L 228.644531 104.945312 L 191.621094 125.121094 Z M 190.050781 122.226562 " fill-opacity="1" fill-rule="nonzero"/><path fill="#a1a1a1" d="M 173.390625 140.503906 L 230.925781 109.148438 L 232.5 112.042969 L 174.964844 143.394531 Z M 173.390625 140.503906 " fill-opacity="1" fill-rule="nonzero"/><path fill="#a1a1a1" d="M 177.253906 147.601562 L 221.199219 123.652344 L 222.773438 126.542969 L 178.824219 150.492188 Z M 177.253906 147.601562 " fill-opacity="1" fill-rule="nonzero"/><path fill="#a1a1a1" d="M 189.203125 150.289062 L 227.226562 129.570312 L 228.800781 132.460938 L 190.777344 153.179688 Z M 189.203125 150.289062 " fill-opacity="1" fill-rule="nonzero"/><path fill="#a1a1a1" d="M 184.972656 161.796875 L 235.398438 134.316406 L 236.96875 137.210938 L 186.542969 164.6875 Z M 184.972656 161.796875 " fill-opacity="1" fill-rule="nonzero"/><path fill="#a1a1a1" d="M 190.414062 168.027344 L 246.363281 137.539062 L 247.9375 140.429688 L 191.988281 170.921875 Z M 190.414062 168.027344 " fill-opacity="1" fill-rule="nonzero"/><path fill="#a1a1a1" d="M 192.691406 175.992188 L 250.226562 144.636719 L 251.796875 147.527344 L 194.261719 178.878906 Z M 192.691406 175.992188 " fill-opacity="1" fill-rule="nonzero"/><path fill="#a1a1a1" d="M 200.066406 181.167969 L 250.5625 153.652344 L 252.132812 156.542969 L 201.640625 184.058594 Z M 200.066406 181.167969 " fill-opacity="1" fill-rule="nonzero"/><path fill="#000000" d="M 137.625 68.882812 L 151.246094 56.039062 L 151.867188 56.699219 L 138.246094 69.546875 Z M 137.625 68.882812 " fill-opacity="1" fill-rule="nonzero"/><path fill="#000000" d="M 154.617188 104.109375 L 175.074219 98.503906 L 175.316406 99.378906 L 154.859375 104.984375 Z M 154.617188 104.109375 " fill-opacity="1" fill-rule="nonzero"/><path fill="#000000" d="M 149.714844 75.972656 C 150.289062 76.550781 150.832031 77.152344 151.347656 77.777344 C 151.863281 78.40625 152.347656 79.058594 152.796875 79.734375 C 153.25 80.410156 153.664062 81.105469 154.046875 81.824219 C 154.429688 82.539062 154.777344 83.273438 155.089844 84.023438 C 155.398438 84.777344 155.671875 85.539062 155.90625 86.320312 C 156.144531 87.097656 156.339844 87.882812 156.5 88.679688 C 156.65625 89.476562 156.777344 90.28125 156.855469 91.089844 C 156.9375 91.898438 156.976562 92.710938 156.976562 93.523438 C 156.976562 94.335938 156.9375 95.144531 156.855469 95.953125 C 156.777344 96.765625 156.65625 97.566406 156.5 98.363281 C 156.339844 99.160156 156.144531 99.949219 155.90625 100.726562 C 155.671875 101.503906 155.398438 102.269531 155.089844 103.019531 C 154.777344 103.769531 154.429688 104.503906 154.046875 105.222656 C 153.664062 105.9375 153.25 106.632812 152.796875 107.308594 C 152.347656 107.984375 151.863281 108.636719 151.347656 109.265625 C 150.832031 109.894531 150.289062 110.496094 149.714844 111.070312 C 149.140625 111.644531 148.539062 112.191406 147.914062 112.707031 C 147.285156 113.222656 146.632812 113.707031 145.957031 114.15625 C 145.285156 114.609375 144.585938 115.027344 143.871094 115.410156 C 143.15625 115.792969 142.421875 116.140625 141.671875 116.449219 C 140.921875 116.761719 140.160156 117.035156 139.382812 117.269531 C 138.605469 117.507812 137.816406 117.703125 137.023438 117.863281 C 136.226562 118.023438 135.421875 118.140625 134.617188 118.21875 C 133.808594 118.300781 132.996094 118.339844 132.1875 118.339844 C 131.375 118.339844 130.5625 118.300781 129.753906 118.21875 C 128.949219 118.140625 128.144531 118.023438 127.347656 117.863281 C 126.554688 117.703125 125.765625 117.507812 124.988281 117.273438 C 124.210938 117.035156 123.449219 116.761719 122.699219 116.449219 C 121.949219 116.140625 121.214844 115.792969 120.5 115.410156 C 119.785156 115.027344 119.085938 114.609375 118.414062 114.15625 C 117.738281 113.707031 117.085938 113.222656 116.457031 112.707031 C 115.832031 112.191406 115.230469 111.644531 114.65625 111.070312 C 114.082031 110.496094 113.539062 109.894531 113.023438 109.265625 C 112.507812 108.640625 112.023438 107.988281 111.574219 107.3125 C 111.121094 106.636719 110.703125 105.9375 110.320312 105.222656 C 109.941406 104.503906 109.59375 103.769531 109.28125 103.019531 C 108.972656 102.269531 108.699219 101.503906 108.460938 100.726562 C 108.226562 99.949219 108.03125 99.160156 107.871094 98.363281 C 107.710938 97.566406 107.59375 96.765625 107.515625 95.957031 C 107.433594 95.148438 107.394531 94.335938 107.394531 93.523438 C 107.394531 92.710938 107.433594 91.898438 107.515625 91.089844 C 107.59375 90.28125 107.710938 89.480469 107.871094 88.683594 C 108.03125 87.882812 108.226562 87.097656 108.460938 86.320312 C 108.699219 85.542969 108.972656 84.777344 109.28125 84.027344 C 109.59375 83.273438 109.9375 82.542969 110.320312 81.824219 C 110.703125 81.109375 111.121094 80.410156 111.574219 79.734375 C 112.023438 79.058594 112.507812 78.40625 113.023438 77.78125 C 113.535156 77.152344 114.082031 76.550781 114.65625 75.976562 C 115.230469 75.398438 115.832031 74.855469 116.457031 74.339844 C 117.085938 73.824219 117.738281 73.339844 118.410156 72.886719 C 119.085938 72.4375 119.78125 72.019531 120.5 71.636719 C 121.214844 71.253906 121.949219 70.90625 122.699219 70.59375 C 123.449219 70.285156 124.210938 70.011719 124.988281 69.773438 C 125.765625 69.539062 126.550781 69.339844 127.347656 69.183594 C 128.144531 69.023438 128.945312 68.90625 129.753906 68.824219 C 130.5625 68.746094 131.371094 68.707031 132.183594 68.707031 C 132.996094 68.707031 133.804688 68.746094 134.613281 68.824219 C 135.421875 68.90625 136.226562 69.023438 137.019531 69.183594 C 137.816406 69.339844 138.605469 69.539062 139.382812 69.773438 C 140.15625 70.011719 140.921875 70.285156 141.671875 70.59375 C 142.421875 70.90625 143.15625 71.253906 143.871094 71.636719 C 144.585938 72.019531 145.28125 72.4375 145.957031 72.886719 C 146.632812 73.339844 147.285156 73.824219 147.910156 74.339844 C 148.539062 74.855469 149.140625 75.398438 149.714844 75.972656 Z M 149.714844 75.972656 " fill-opacity="1" fill-rule="nonzero"/><path fill="#ff5548" d="M 149.390625 75.644531 C 146.125 72.5 142.097656 70.351562 137.792969 69.347656 L 132.1875 93.523438 Z M 149.390625 75.644531 " fill-opacity="1" fill-rule="nonzero"/><path fill="#3349ff" d="M 149.367188 75.621094 L 132.1875 93.519531 L 154.363281 104.613281 C 157.851562 97.601562 157.984375 89.058594 153.957031 81.65625 C 152.710938 79.363281 151.15625 77.34375 149.367188 75.621094 Z M 149.367188 75.621094 " fill-opacity="1" fill-rule="nonzero"/><path fill="#fffb6c" d="M 151.445312 56.3125 L 166.761719 47.96875 L 190.066406 90.824219 L 174.75 99.167969 Z M 151.445312 56.3125 " fill-opacity="1" fill-rule="nonzero"/><path fill="#fff80a" d="M 168.449219 87.578125 L 183.761719 79.234375 L 190.0625 90.824219 L 174.75 99.167969 Z M 168.449219 87.578125 " fill-opacity="1" fill-rule="nonzero"/><path fill="#fffece" d="M 151.445312 56.3125 L 166.761719 47.96875 L 174.75 62.65625 L 159.433594 71.003906 Z M 151.445312 56.3125 " fill-opacity="1" fill-rule="nonzero"/><path fill="#fffece" d="M 179.976562 54.722656 L 182.691406 53.242188 L 184.171875 55.964844 L 181.453125 57.445312 Z M 179.976562 54.722656 " fill-opacity="1" fill-rule="nonzero"/><path fill="#fffb6c" d="M 185.03125 64.027344 L 187.75 62.546875 L 189.226562 65.269531 L 186.511719 66.75 Z M 185.03125 64.027344 " fill-opacity="1" fill-rule="nonzero"/><path fill="#fff80a" d="M 190.089844 73.316406 L 192.804688 71.835938 L 194.285156 74.558594 L 191.570312 76.039062 Z M 190.089844 73.316406 " fill-opacity="1" fill-rule="nonzero"/><path fill="#000000" d="M 121.566406 137.101562 L 88.910156 77.046875 L 184.34375 25.042969 L 217 85.09375 Z M 90.140625 77.410156 L 121.929688 135.867188 L 215.769531 84.730469 L 183.980469 26.273438 Z M 90.140625 77.410156 " fill-opacity="1" fill-rule="nonzero"/><path fill="#bbbbbb" d="M 122.34375 61.539062 L 151.085938 45.875 L 152.039062 47.628906 L 123.300781 63.292969 Z M 122.34375 61.539062 " fill-opacity="1" fill-rule="nonzero"/><path fill="#bbbbbb" d="M 187.246094 51.667969 L 193.007812 48.527344 L 193.726562 49.855469 L 187.96875 52.996094 Z M 187.246094 51.667969 " fill-opacity="1" fill-rule="nonzero"/><path fill="#bbbbbb" d="M 192.300781 60.964844 L 198.0625 57.824219 L 198.78125 59.148438 L 193.019531 62.289062 Z M 192.300781 60.964844 " fill-opacity="1" fill-rule="nonzero"/><path fill="#bbbbbb" d="M 197.355469 70.261719 L 203.117188 67.125 L 203.835938 68.449219 L 198.078125 71.585938 Z M 197.355469 70.261719 " fill-opacity="1" fill-rule="nonzero"/><path fill="#ffffff" d="M 186.898438 267.222656 L 268.160156 113.574219 L 375.015625 170.207031 L 293.753906 323.859375 Z M 186.898438 267.222656 " fill-opacity="1" fill-rule="nonzero"/><path fill="#a1a1a1" d="M 228.867188 197.28125 L 230.40625 194.367188 L 265.988281 213.226562 L 264.445312 216.136719 Z M 228.867188 197.28125 " fill-opacity="1" fill-rule="nonzero"/><path fill="#a1a1a1" d="M 225.089844 204.425781 L 226.628906 201.511719 L 262.210938 220.371094 L 260.671875 223.28125 Z M 225.089844 204.425781 " fill-opacity="1" fill-rule="nonzero"/><path fill="#a1a1a1" d="M 221.308594 211.558594 L 222.847656 208.648438 L 258.429688 227.503906 L 256.890625 230.417969 Z M 221.308594 211.558594 " fill-opacity="1" fill-rule="nonzero"/><path fill="#a1a1a1" d="M 217.535156 218.707031 L 219.074219 215.796875 L 254.65625 234.65625 L 253.117188 237.566406 Z M 217.535156 218.707031 " fill-opacity="1" fill-rule="nonzero"/><path fill="#a1a1a1" d="M 213.757812 225.847656 L 215.296875 222.9375 L 250.878906 241.796875 L 249.339844 244.707031 Z M 213.757812 225.847656 " fill-opacity="1" fill-rule="nonzero"/><path fill="#a1a1a1" d="M 209.980469 232.988281 L 211.519531 230.078125 L 247.101562 248.9375 L 245.5625 251.847656 Z M 209.980469 232.988281 " fill-opacity="1" fill-rule="nonzero"/><path fill="#a1a1a1" d="M 206.203125 240.125 L 207.742188 237.214844 L 243.324219 256.074219 L 241.785156 258.984375 Z M 206.203125 240.125 " fill-opacity="1" fill-rule="nonzero"/><path fill="#a1a1a1" d="M 202.429688 247.269531 L 203.96875 244.355469 L 239.550781 263.214844 L 238.007812 266.125 Z M 202.429688 247.269531 " fill-opacity="1" fill-rule="nonzero"/><path fill="#a1a1a1" d="M 198.652344 254.410156 L 200.1875 251.5 L 235.769531 270.359375 L 234.234375 273.269531 Z M 198.652344 254.410156 " fill-opacity="1" fill-rule="nonzero"/><path fill="#a1a1a1" d="M 269.191406 218.644531 L 270.730469 215.730469 L 298.90625 230.664062 L 297.367188 233.574219 Z M 269.191406 218.644531 " fill-opacity="1" fill-rule="nonzero"/><path fill="#a1a1a1" d="M 286.058594 236.730469 L 287.597656 233.820312 L 324.851562 253.566406 L 323.3125 256.476562 Z M 286.058594 236.730469 " fill-opacity="1" fill-rule="nonzero"/><path fill="#a1a1a1" d="M 261.640625 232.9375 L 263.179688 230.023438 L 321.074219 260.710938 L 319.535156 263.621094 Z M 261.640625 232.9375 " fill-opacity="1" fill-rule="nonzero"/><path fill="#a1a1a1" d="M 257.863281 240.074219 L 259.402344 237.164062 L 303.625 260.601562 L 302.085938 263.511719 Z M 257.863281 240.074219 " fill-opacity="1" fill-rule="nonzero"/><path fill="#a1a1a1" d="M 262.230469 251.535156 L 263.769531 248.625 L 302.027344 268.902344 L 300.488281 271.8125 Z M 262.230469 251.535156 " fill-opacity="1" fill-rule="nonzero"/><path fill="#a1a1a1" d="M 250.308594 254.363281 L 251.847656 251.449219 L 302.589844 278.34375 L 301.050781 281.253906 Z M 250.308594 254.363281 " fill-opacity="1" fill-rule="nonzero"/><path fill="#a1a1a1" d="M 248.128906 262.347656 L 249.667969 259.433594 L 305.96875 289.273438 L 304.425781 292.183594 Z M 248.128906 262.347656 " fill-opacity="1" fill-rule="nonzero"/><path fill="#a1a1a1" d="M 242.753906 268.640625 L 244.292969 265.730469 L 302.1875 296.414062 L 300.648438 299.324219 Z M 242.753906 268.640625 " fill-opacity="1" fill-rule="nonzero"/><path fill="#000000" d="M 247.363281 180.421875 L 247.445312 180.273438 L 337.210938 227.847656 L 337.132812 228 Z M 247.363281 180.421875 " fill-opacity="1" fill-rule="nonzero"/><path fill="#000000" d="M 250.1875 175.085938 L 250.265625 174.933594 L 340.03125 222.511719 L 339.953125 222.660156 Z M 250.1875 175.085938 " fill-opacity="1" fill-rule="nonzero"/><path fill="#000000" d="M 253.007812 169.746094 L 253.089844 169.597656 L 342.855469 217.171875 L 342.777344 217.324219 Z M 253.007812 169.746094 " fill-opacity="1" fill-rule="nonzero"/><path fill="#000000" d="M 345.59375 211.988281 L 255.824219 164.414062 L 255.90625 164.261719 L 345.671875 211.839844 Z M 345.59375 211.988281 " fill-opacity="1" fill-rule="nonzero"/><path fill="#000000" d="M 258.652344 159.074219 L 258.734375 158.925781 L 348.5 206.5 L 348.421875 206.652344 Z M 258.652344 159.074219 " fill-opacity="1" fill-rule="nonzero"/><path fill="#000000" d="M 261.476562 153.734375 L 261.554688 153.585938 L 351.324219 201.164062 L 351.242188 201.3125 Z M 261.476562 153.734375 " fill-opacity="1" fill-rule="nonzero"/><path fill="#000000" d="M 264.300781 148.398438 L 264.378906 148.25 L 354.144531 195.828125 L 354.066406 195.976562 Z M 264.300781 148.398438 " fill-opacity="1" fill-rule="nonzero"/><path fill="#000000" d="M 267.121094 143.058594 L 267.199219 142.910156 L 356.96875 190.488281 L 356.886719 190.636719 Z M 267.121094 143.058594 " fill-opacity="1" fill-rule="nonzero"/><path fill="#000000" d="M 269.945312 137.726562 L 270.023438 137.574219 L 359.789062 185.152344 L 359.710938 185.300781 Z M 269.945312 137.726562 " fill-opacity="1" fill-rule="nonzero"/><path fill="#000000" d="M 272.765625 132.390625 L 272.84375 132.238281 L 362.613281 179.816406 L 362.53125 179.964844 Z M 272.765625 132.390625 " fill-opacity="1" fill-rule="nonzero"/><path fill="#000000" d="M 244.957031 184.695312 L 275.175781 127.679688 L 275.324219 127.761719 L 245.109375 184.773438 Z M 244.957031 184.695312 " fill-opacity="1" fill-rule="nonzero"/><path fill="#000000" d="M 252.144531 188.523438 L 282.324219 131.488281 L 282.472656 131.566406 L 252.292969 188.601562 Z M 252.144531 188.523438 " fill-opacity="1" fill-rule="nonzero"/><path fill="#000000" d="M 259.4375 192.386719 L 259.289062 192.308594 L 289.457031 135.265625 L 289.605469 135.34375 Z M 259.4375 192.386719 " fill-opacity="1" fill-rule="nonzero"/><path fill="#000000" d="M 266.425781 196.101562 L 296.609375 139.070312 L 296.761719 139.148438 L 266.574219 196.179688 Z M 266.425781 196.101562 " fill-opacity="1" fill-rule="nonzero"/><path fill="#000000" d="M 273.679688 199.941406 L 303.671875 142.804688 L 303.820312 142.882812 L 273.828125 200.019531 Z M 273.679688 199.941406 " fill-opacity="1" fill-rule="nonzero"/><path fill="#000000" d="M 280.785156 203.71875 L 310.871094 146.632812 L 311.023438 146.714844 L 280.933594 203.796875 Z M 280.785156 203.71875 " fill-opacity="1" fill-rule="nonzero"/><path fill="#000000" d="M 287.859375 207.464844 L 318.078125 150.453125 L 318.226562 150.53125 L 288.007812 207.546875 Z M 287.859375 207.464844 " fill-opacity="1" fill-rule="nonzero"/><path fill="#000000" d="M 295.1875 211.332031 L 295.039062 211.253906 L 325.203125 154.210938 L 325.351562 154.292969 Z M 295.1875 211.332031 " fill-opacity="1" fill-rule="nonzero"/><path fill="#000000" d="M 302.164062 215.050781 L 332.382812 158.035156 L 332.53125 158.113281 L 302.3125 215.128906 Z M 302.164062 215.050781 " fill-opacity="1" fill-rule="nonzero"/><path fill="#000000" d="M 309.3125 218.839844 L 339.53125 161.828125 L 339.683594 161.90625 L 309.460938 218.921875 Z M 309.3125 218.839844 " fill-opacity="1" fill-rule="nonzero"/><path fill="#000000" d="M 316.460938 222.597656 L 346.691406 165.589844 L 346.839844 165.667969 L 316.609375 222.675781 Z M 316.460938 222.597656 " fill-opacity="1" fill-rule="nonzero"/><path fill="#000000" d="M 323.703125 226.460938 L 353.742188 169.351562 L 353.890625 169.429688 L 323.851562 226.539062 Z M 323.703125 226.460938 " fill-opacity="1" fill-rule="nonzero"/><path fill="#000000" d="M 334.710938 232.570312 L 244.71875 184.871094 L 275.003906 127.605469 L 275.453125 127.84375 L 245.40625 184.664062 L 334.949219 232.121094 Z M 334.710938 232.570312 " fill-opacity="1" fill-rule="nonzero"/><path fill="#000000" d="M 330.832031 230.246094 L 360.921875 173.164062 L 361.070312 173.242188 L 330.984375 230.324219 Z M 330.832031 230.246094 " fill-opacity="1" fill-rule="nonzero"/><path fill="#da1f20" d="M 245.089844 185.191406 L 245.035156 184.34375 L 254.429688 183.722656 L 267.535156 176.671875 L 271.824219 185.722656 L 287.167969 173.71875 L 304.40625 175.976562 L 324.21875 172.898438 L 337.101562 165.96875 L 361.144531 172.789062 L 360.914062 173.605469 L 337.199219 166.875 L 324.492188 173.714844 L 304.414062 176.828125 L 287.410156 174.601562 L 271.515625 187.039062 L 267.152344 177.835938 L 254.667969 184.554688 Z M 245.089844 185.191406 " fill-opacity="1" fill-rule="nonzero"/><path fill="#ffffff" d="M 255.28125 184.527344 C 255.066406 184.933594 254.566406 185.085938 254.164062 184.871094 C 253.761719 184.65625 253.605469 184.15625 253.816406 183.753906 C 254.03125 183.347656 254.53125 183.191406 254.9375 183.40625 C 255.339844 183.621094 255.492188 184.121094 255.28125 184.527344 Z M 255.28125 184.527344 " fill-opacity="1" fill-rule="nonzero"/><path fill="#da1f20" d="M 254.121094 184.945312 C 253.675781 184.707031 253.507812 184.15625 253.742188 183.710938 C 253.976562 183.265625 254.53125 183.09375 254.976562 183.332031 C 255.421875 183.566406 255.589844 184.121094 255.355469 184.566406 C 255.117188 185.011719 254.566406 185.179688 254.121094 184.945312 Z M 254.898438 183.484375 C 254.535156 183.292969 254.085938 183.429688 253.894531 183.792969 C 253.703125 184.15625 253.839844 184.605469 254.203125 184.796875 C 254.566406 184.992188 255.015625 184.851562 255.207031 184.488281 C 255.398438 184.125 255.257812 183.671875 254.898438 183.484375 Z M 254.898438 183.484375 " fill-opacity="1" fill-rule="nonzero"/><path fill="#ffffff" d="M 245.914062 185.21875 C 245.699219 185.625 245.199219 185.78125 244.792969 185.566406 C 244.390625 185.351562 244.238281 184.851562 244.449219 184.445312 C 244.664062 184.039062 245.164062 183.886719 245.570312 184.101562 C 245.972656 184.316406 246.128906 184.816406 245.914062 185.21875 Z M 245.914062 185.21875 " fill-opacity="1" fill-rule="nonzero"/><path fill="#da1f20" d="M 244.753906 185.636719 C 244.3125 185.402344 244.140625 184.847656 244.378906 184.402344 C 244.613281 183.957031 245.167969 183.789062 245.609375 184.023438 C 246.054688 184.261719 246.226562 184.816406 245.988281 185.257812 C 245.753906 185.703125 245.199219 185.875 244.753906 185.636719 Z M 245.53125 184.171875 C 245.167969 183.980469 244.714844 184.117188 244.527344 184.480469 C 244.335938 184.84375 244.472656 185.296875 244.835938 185.488281 C 245.195312 185.675781 245.648438 185.539062 245.839844 185.179688 C 246.03125 184.816406 245.890625 184.367188 245.53125 184.171875 Z M 245.53125 184.171875 " fill-opacity="1" fill-rule="nonzero"/><path fill="#ffffff" d="M 268.074219 177.644531 C 267.863281 178.046875 267.363281 178.203125 266.957031 177.988281 C 266.550781 177.773438 266.398438 177.273438 266.613281 176.867188 C 266.828125 176.460938 267.328125 176.308594 267.730469 176.523438 C 268.132812 176.734375 268.289062 177.238281 268.074219 177.644531 Z M 268.074219 177.644531 " fill-opacity="1" fill-rule="nonzero"/><path fill="#da1f20" d="M 266.917969 178.0625 C 266.472656 177.824219 266.304688 177.269531 266.535156 176.824219 C 266.773438 176.378906 267.328125 176.210938 267.769531 176.449219 C 268.214844 176.683594 268.382812 177.238281 268.148438 177.683594 C 267.914062 178.128906 267.363281 178.296875 266.917969 178.0625 Z M 267.691406 176.597656 C 267.328125 176.40625 266.878906 176.542969 266.6875 176.90625 C 266.496094 177.269531 266.632812 177.71875 266.996094 177.910156 C 267.359375 178.101562 267.808594 177.964844 268 177.601562 C 268.191406 177.242188 268.050781 176.789062 267.691406 176.597656 Z M 267.691406 176.597656 " fill-opacity="1" fill-rule="nonzero"/><path fill="#ffffff" d="M 272.402344 186.765625 C 272.1875 187.171875 271.691406 187.328125 271.285156 187.113281 C 270.882812 186.898438 270.726562 186.398438 270.941406 185.992188 C 271.15625 185.585938 271.652344 185.433594 272.058594 185.648438 C 272.464844 185.863281 272.617188 186.363281 272.402344 186.765625 Z M 272.402344 186.765625 " fill-opacity="1" fill-rule="nonzero"/><path fill="#da1f20" d="M 271.246094 187.1875 C 270.800781 186.953125 270.632812 186.398438 270.867188 185.953125 C 271.101562 185.507812 271.65625 185.339844 272.101562 185.574219 C 272.546875 185.8125 272.714844 186.363281 272.480469 186.808594 C 272.242188 187.25 271.691406 187.425781 271.246094 187.1875 Z M 272.019531 185.722656 C 271.65625 185.53125 271.207031 185.667969 271.015625 186.03125 C 270.824219 186.394531 270.964844 186.847656 271.324219 187.035156 C 271.6875 187.226562 272.136719 187.089844 272.328125 186.726562 C 272.519531 186.363281 272.382812 185.914062 272.019531 185.722656 Z M 272.019531 185.722656 " fill-opacity="1" fill-rule="nonzero"/><path fill="#ffffff" d="M 288.019531 174.546875 C 287.804688 174.953125 287.300781 175.105469 286.898438 174.890625 C 286.496094 174.675781 286.34375 174.175781 286.554688 173.769531 C 286.769531 173.367188 287.269531 173.210938 287.675781 173.425781 C 288.078125 173.640625 288.234375 174.144531 288.019531 174.546875 Z M 288.019531 174.546875 " fill-opacity="1" fill-rule="nonzero"/><path fill="#da1f20" d="M 286.859375 174.96875 C 286.417969 174.730469 286.246094 174.175781 286.484375 173.730469 C 286.71875 173.285156 287.273438 173.117188 287.714844 173.355469 C 288.160156 173.589844 288.332031 174.144531 288.097656 174.589844 C 287.859375 175.03125 287.304688 175.203125 286.859375 174.96875 Z M 287.636719 173.5 C 287.273438 173.3125 286.820312 173.449219 286.632812 173.8125 C 286.441406 174.175781 286.578125 174.625 286.941406 174.816406 C 287.300781 175.007812 287.753906 174.871094 287.945312 174.507812 C 288.136719 174.144531 287.996094 173.691406 287.636719 173.5 Z M 287.636719 173.5 " fill-opacity="1" fill-rule="nonzero"/><path fill="#ffffff" d="M 305.140625 176.789062 C 304.925781 177.195312 304.425781 177.347656 304.023438 177.132812 C 303.617188 176.917969 303.460938 176.421875 303.675781 176.015625 C 303.890625 175.609375 304.390625 175.453125 304.796875 175.667969 C 305.199219 175.882812 305.355469 176.382812 305.140625 176.789062 Z M 305.140625 176.789062 " fill-opacity="1" fill-rule="nonzero"/><path fill="#da1f20" d="M 303.984375 177.207031 C 303.542969 176.972656 303.371094 176.417969 303.609375 175.972656 C 303.84375 175.527344 304.398438 175.359375 304.839844 175.589844 C 305.28125 175.828125 305.457031 176.378906 305.21875 176.824219 C 304.980469 177.273438 304.425781 177.445312 303.984375 177.207031 Z M 304.757812 175.742188 C 304.398438 175.550781 303.945312 175.6875 303.753906 176.050781 C 303.566406 176.414062 303.703125 176.863281 304.0625 177.054688 C 304.425781 177.246094 304.878906 177.109375 305.066406 176.746094 C 305.257812 176.386719 305.121094 175.9375 304.757812 175.742188 Z M 304.757812 175.742188 " fill-opacity="1" fill-rule="nonzero"/><path fill="#ffffff" d="M 315.113281 175.242188 C 314.898438 175.648438 314.398438 175.800781 313.996094 175.585938 C 313.589844 175.371094 313.433594 174.875 313.648438 174.46875 C 313.863281 174.0625 314.363281 173.90625 314.769531 174.121094 C 315.175781 174.335938 315.328125 174.835938 315.113281 175.242188 Z M 315.113281 175.242188 " fill-opacity="1" fill-rule="nonzero"/><path fill="#da1f20" d="M 313.957031 175.660156 C 313.511719 175.425781 313.339844 174.871094 313.578125 174.425781 C 313.8125 173.980469 314.367188 173.8125 314.8125 174.042969 C 315.253906 174.28125 315.425781 174.832031 315.1875 175.277344 C 314.953125 175.726562 314.398438 175.894531 313.957031 175.660156 Z M 314.730469 174.195312 C 314.367188 174.003906 313.917969 174.140625 313.726562 174.503906 C 313.535156 174.867188 313.675781 175.316406 314.035156 175.507812 C 314.398438 175.699219 314.847656 175.5625 315.039062 175.199219 C 315.230469 174.839844 315.09375 174.390625 314.730469 174.195312 Z M 314.730469 174.195312 " fill-opacity="1" fill-rule="nonzero"/><path fill="#ffffff" d="M 325.085938 173.691406 C 324.871094 174.097656 324.371094 174.253906 323.96875 174.039062 C 323.5625 173.824219 323.410156 173.324219 323.625 172.917969 C 323.835938 172.511719 324.335938 172.359375 324.742188 172.574219 C 325.148438 172.789062 325.300781 173.289062 325.085938 173.691406 Z M 325.085938 173.691406 " fill-opacity="1" fill-rule="nonzero"/><path fill="#da1f20" d="M 323.929688 174.113281 C 323.484375 173.878906 323.316406 173.324219 323.550781 172.878906 C 323.785156 172.433594 324.339844 172.265625 324.785156 172.496094 C 325.230469 172.734375 325.398438 173.285156 325.164062 173.730469 C 324.925781 174.175781 324.371094 174.347656 323.929688 174.113281 Z M 324.703125 172.648438 C 324.339844 172.457031 323.890625 172.597656 323.699219 172.957031 C 323.507812 173.320312 323.644531 173.769531 324.007812 173.960938 C 324.371094 174.152344 324.820312 174.015625 325.011719 173.652344 C 325.203125 173.289062 325.066406 172.839844 324.703125 172.648438 Z M 324.703125 172.648438 " fill-opacity="1" fill-rule="nonzero"/><path fill="#ffffff" d="M 337.882812 166.808594 C 337.667969 167.214844 337.167969 167.367188 336.761719 167.152344 C 336.355469 166.9375 336.207031 166.4375 336.417969 166.035156 C 336.632812 165.628906 337.132812 165.472656 337.535156 165.6875 C 337.941406 165.902344 338.09375 166.402344 337.882812 166.808594 Z M 337.882812 166.808594 " fill-opacity="1" fill-rule="nonzero"/><path fill="#da1f20" d="M 336.722656 167.226562 C 336.277344 166.992188 336.109375 166.4375 336.34375 165.992188 C 336.582031 165.546875 337.132812 165.375 337.578125 165.613281 C 338.023438 165.847656 338.191406 166.402344 337.957031 166.847656 C 337.722656 167.292969 337.167969 167.460938 336.722656 167.226562 Z M 337.496094 165.765625 C 337.132812 165.574219 336.683594 165.710938 336.492188 166.074219 C 336.300781 166.4375 336.4375 166.886719 336.800781 167.078125 C 337.164062 167.269531 337.613281 167.132812 337.804688 166.769531 C 338 166.40625 337.859375 165.957031 337.496094 165.765625 Z M 337.496094 165.765625 " fill-opacity="1" fill-rule="nonzero"/><path fill="#0078b7" d="M 261.503906 188.300781 C 261.421875 188.257812 261.355469 188.191406 261.316406 188.109375 L 257.050781 179.109375 L 250.023438 175.386719 L 250.417969 174.636719 L 257.566406 178.425781 C 257.648438 178.46875 257.714844 178.535156 257.753906 178.621094 L 261.890625 187.34375 L 274.242188 180.699219 L 292.640625 163.179688 C 292.765625 163.058594 292.949219 163.027344 293.113281 163.101562 C 293.269531 163.179688 293.367188 163.339844 293.351562 163.515625 L 292.042969 183.210938 L 296.03125 192.035156 L 308.535156 185.160156 C 308.671875 185.085938 308.835938 185.089844 308.964844 185.175781 C 309.097656 185.257812 309.171875 185.40625 309.160156 185.558594 L 307.90625 204.414062 L 322.777344 192.777344 C 322.808594 192.75 322.847656 192.726562 322.890625 192.710938 L 345.660156 184.28125 C 345.863281 184.207031 346.09375 184.300781 346.1875 184.496094 L 350.515625 193.625 L 349.753906 193.988281 L 345.59375 185.210938 L 323.25 193.484375 L 307.683594 205.667969 C 307.554688 205.769531 307.371094 205.785156 307.226562 205.707031 C 307.078125 205.625 306.992188 205.46875 307.003906 205.304688 L 308.269531 186.273438 L 296.039062 192.996094 C 295.9375 193.054688 295.8125 193.0625 295.703125 193.027344 C 295.589844 192.992188 295.5 192.910156 295.453125 192.800781 L 291.238281 183.460938 C 291.210938 183.398438 291.195312 183.328125 291.199219 183.257812 L 292.445312 164.539062 L 274.792969 181.347656 C 274.765625 181.375 274.734375 181.398438 274.703125 181.414062 L 261.90625 188.300781 C 261.804688 188.351562 261.6875 188.367188 261.574219 188.328125 C 261.542969 188.324219 261.523438 188.3125 261.503906 188.300781 Z M 261.503906 188.300781 " fill-opacity="1" fill-rule="nonzero"/><path fill="#ffffff" d="M 251.074219 175.464844 C 250.859375 175.871094 250.359375 176.023438 249.953125 175.808594 C 249.546875 175.59375 249.398438 175.09375 249.609375 174.6875 C 249.824219 174.28125 250.324219 174.132812 250.726562 174.34375 C 251.132812 174.558594 251.289062 175.058594 251.074219 175.464844 Z M 251.074219 175.464844 " fill-opacity="1" fill-rule="nonzero"/><path fill="#0078b7" d="M 249.914062 175.882812 C 249.46875 175.648438 249.300781 175.09375 249.535156 174.648438 C 249.773438 174.203125 250.324219 174.035156 250.769531 174.269531 C 251.214844 174.507812 251.382812 175.0625 251.148438 175.507812 C 250.914062 175.949219 250.359375 176.117188 249.914062 175.882812 Z M 250.6875 174.417969 C 250.324219 174.226562 249.875 174.363281 249.683594 174.726562 C 249.492188 175.089844 249.628906 175.542969 249.992188 175.734375 C 250.355469 175.921875 250.804688 175.785156 250.996094 175.425781 C 251.191406 175.0625 251.050781 174.609375 250.6875 174.417969 Z M 250.6875 174.417969 " fill-opacity="1" fill-rule="nonzero"/><path fill="#ffffff" d="M 258.101562 179.191406 C 257.886719 179.597656 257.390625 179.75 256.984375 179.535156 C 256.582031 179.320312 256.429688 178.820312 256.640625 178.414062 C 256.855469 178.007812 257.351562 177.859375 257.757812 178.070312 C 258.164062 178.285156 258.316406 178.785156 258.101562 179.191406 Z M 258.101562 179.191406 " fill-opacity="1" fill-rule="nonzero"/><path fill="#0078b7" d="M 256.945312 179.609375 C 256.5 179.371094 256.332031 178.816406 256.566406 178.371094 C 256.804688 177.929688 257.355469 177.757812 257.800781 177.996094 C 258.246094 178.230469 258.414062 178.785156 258.179688 179.230469 C 257.941406 179.675781 257.390625 179.84375 256.945312 179.609375 Z M 257.71875 178.144531 C 257.355469 177.953125 256.90625 178.089844 256.714844 178.453125 C 256.523438 178.816406 256.660156 179.265625 257.023438 179.457031 C 257.386719 179.648438 257.835938 179.511719 258.027344 179.148438 C 258.222656 178.789062 258.082031 178.335938 257.71875 178.144531 Z M 257.71875 178.144531 " fill-opacity="1" fill-rule="nonzero"/><path fill="#ffffff" d="M 262.429688 188.316406 C 262.214844 188.71875 261.714844 188.875 261.3125 188.664062 C 260.90625 188.449219 260.753906 187.949219 260.96875 187.542969 C 261.179688 187.136719 261.679688 186.980469 262.085938 187.195312 C 262.492188 187.410156 262.644531 187.910156 262.429688 188.316406 Z M 262.429688 188.316406 " fill-opacity="1" fill-rule="nonzero"/><path fill="#0078b7" d="M 261.273438 188.734375 C 260.828125 188.5 260.660156 187.945312 260.894531 187.5 C 261.128906 187.054688 261.683594 186.886719 262.128906 187.121094 C 262.574219 187.359375 262.742188 187.910156 262.507812 188.355469 C 262.269531 188.800781 261.714844 188.972656 261.273438 188.734375 Z M 262.046875 187.269531 C 261.683594 187.078125 261.234375 187.214844 261.042969 187.578125 C 260.851562 187.941406 260.988281 188.394531 261.351562 188.582031 C 261.714844 188.773438 262.164062 188.636719 262.355469 188.273438 C 262.546875 187.914062 262.410156 187.464844 262.046875 187.269531 Z M 262.046875 187.269531 " fill-opacity="1" fill-rule="nonzero"/><path fill="#ffffff" d="M 275.226562 181.429688 C 275.011719 181.835938 274.511719 181.988281 274.105469 181.773438 C 273.699219 181.558594 273.550781 181.0625 273.761719 180.65625 C 273.976562 180.25 274.476562 180.097656 274.878906 180.308594 C 275.285156 180.523438 275.441406 181.027344 275.226562 181.429688 Z M 275.226562 181.429688 " fill-opacity="1" fill-rule="nonzero"/><path fill="#0078b7" d="M 274.066406 181.851562 C 273.621094 181.613281 273.453125 181.0625 273.6875 180.617188 C 273.925781 180.171875 274.476562 180 274.921875 180.238281 C 275.367188 180.472656 275.535156 181.027344 275.300781 181.472656 C 275.066406 181.914062 274.511719 182.085938 274.066406 181.851562 Z M 274.839844 180.386719 C 274.476562 180.195312 274.027344 180.332031 273.835938 180.695312 C 273.644531 181.058594 273.785156 181.507812 274.144531 181.699219 C 274.507812 181.890625 274.957031 181.753906 275.148438 181.390625 C 275.34375 181.027344 275.203125 180.578125 274.839844 180.386719 Z M 274.839844 180.386719 " fill-opacity="1" fill-rule="nonzero"/><path fill="#ffffff" d="M 292.347656 183.671875 C 292.132812 184.078125 291.632812 184.234375 291.230469 184.019531 C 290.824219 183.804688 290.671875 183.304688 290.886719 182.898438 C 291.101562 182.492188 291.597656 182.339844 292.003906 182.554688 C 292.40625 182.769531 292.5625 183.269531 292.347656 183.671875 Z M 292.347656 183.671875 " fill-opacity="1" fill-rule="nonzero"/><path fill="#0078b7" d="M 291.1875 184.089844 C 290.742188 183.855469 290.574219 183.300781 290.808594 182.855469 C 291.046875 182.410156 291.597656 182.242188 292.042969 182.476562 C 292.488281 182.714844 292.65625 183.269531 292.421875 183.710938 C 292.1875 184.15625 291.632812 184.328125 291.1875 184.089844 Z M 291.964844 182.628906 C 291.601562 182.4375 291.152344 182.578125 290.960938 182.9375 C 290.769531 183.300781 290.910156 183.753906 291.269531 183.941406 C 291.632812 184.132812 292.082031 183.996094 292.273438 183.632812 C 292.464844 183.269531 292.324219 182.820312 291.964844 182.628906 Z M 291.964844 182.628906 " fill-opacity="1" fill-rule="nonzero"/><path fill="#ffffff" d="M 296.671875 192.800781 C 296.457031 193.207031 295.960938 193.359375 295.554688 193.144531 C 295.148438 192.929688 295 192.429688 295.210938 192.027344 C 295.425781 191.621094 295.921875 191.464844 296.328125 191.679688 C 296.734375 191.890625 296.886719 192.394531 296.671875 192.800781 Z M 296.671875 192.800781 " fill-opacity="1" fill-rule="nonzero"/><path fill="#0078b7" d="M 295.519531 193.21875 C 295.074219 192.980469 294.90625 192.429688 295.140625 191.984375 C 295.375 191.539062 295.929688 191.367188 296.371094 191.605469 C 296.816406 191.839844 296.984375 192.394531 296.75 192.835938 C 296.511719 193.285156 295.960938 193.453125 295.519531 193.21875 Z M 296.289062 191.757812 C 295.925781 191.566406 295.476562 191.703125 295.285156 192.066406 C 295.09375 192.429688 295.230469 192.878906 295.59375 193.070312 C 295.957031 193.261719 296.40625 193.125 296.597656 192.761719 C 296.792969 192.398438 296.652344 191.945312 296.289062 191.757812 Z M 296.289062 191.757812 " fill-opacity="1" fill-rule="nonzero"/><path fill="#ffffff" d="M 309.472656 185.914062 C 309.257812 186.320312 308.757812 186.472656 308.351562 186.257812 C 307.945312 186.042969 307.792969 185.542969 308.007812 185.136719 C 308.222656 184.734375 308.722656 184.582031 309.125 184.792969 C 309.53125 185.007812 309.683594 185.511719 309.472656 185.914062 Z M 309.472656 185.914062 " fill-opacity="1" fill-rule="nonzero"/><path fill="#0078b7" d="M 308.3125 186.335938 C 307.867188 186.097656 307.699219 185.542969 307.933594 185.097656 C 308.171875 184.652344 308.722656 184.484375 309.164062 184.722656 C 309.609375 184.957031 309.78125 185.511719 309.546875 185.957031 C 309.3125 186.402344 308.757812 186.570312 308.3125 186.335938 Z M 309.085938 184.871094 C 308.722656 184.679688 308.273438 184.816406 308.082031 185.179688 C 307.890625 185.542969 308.027344 185.992188 308.390625 186.183594 C 308.753906 186.375 309.203125 186.238281 309.394531 185.875 C 309.585938 185.515625 309.449219 185.0625 309.085938 184.871094 Z M 309.085938 184.871094 " fill-opacity="1" fill-rule="nonzero"/><path fill="#ffffff" d="M 308.152344 205.714844 C 307.9375 206.121094 307.4375 206.273438 307.035156 206.058594 C 306.628906 205.84375 306.476562 205.34375 306.6875 204.941406 C 306.902344 204.535156 307.402344 204.382812 307.808594 204.59375 C 308.214844 204.808594 308.367188 205.3125 308.152344 205.714844 Z M 308.152344 205.714844 " fill-opacity="1" fill-rule="nonzero"/><path fill="#0078b7" d="M 306.996094 206.136719 C 306.550781 205.898438 306.378906 205.34375 306.617188 204.898438 C 306.851562 204.457031 307.40625 204.285156 307.847656 204.523438 C 308.292969 204.757812 308.460938 205.3125 308.226562 205.757812 C 307.992188 206.199219 307.4375 206.371094 306.996094 206.136719 Z M 307.769531 204.671875 C 307.40625 204.480469 306.953125 204.617188 306.765625 204.980469 C 306.574219 205.34375 306.710938 205.792969 307.074219 205.984375 C 307.4375 206.175781 307.886719 206.035156 308.078125 205.675781 C 308.269531 205.3125 308.132812 204.859375 307.769531 204.671875 Z M 307.769531 204.671875 " fill-opacity="1" fill-rule="nonzero"/><path fill="#ffffff" d="M 323.769531 193.492188 C 323.554688 193.894531 323.058594 194.054688 322.652344 193.839844 C 322.246094 193.625 322.097656 193.125 322.308594 192.71875 C 322.523438 192.316406 323.019531 192.160156 323.425781 192.375 C 323.828125 192.589844 323.984375 193.089844 323.769531 193.492188 Z M 323.769531 193.492188 " fill-opacity="1" fill-rule="nonzero"/><path fill="#0078b7" d="M 322.613281 193.910156 C 322.167969 193.675781 322 193.121094 322.234375 192.675781 C 322.472656 192.230469 323.023438 192.0625 323.46875 192.296875 C 323.914062 192.535156 324.082031 193.089844 323.847656 193.53125 C 323.609375 193.976562 323.054688 194.148438 322.613281 193.910156 Z M 323.386719 192.449219 C 323.023438 192.257812 322.574219 192.398438 322.382812 192.757812 C 322.191406 193.121094 322.328125 193.574219 322.691406 193.761719 C 323.054688 193.953125 323.503906 193.816406 323.695312 193.453125 C 323.886719 193.089844 323.746094 192.640625 323.386719 192.449219 Z M 323.386719 192.449219 " fill-opacity="1" fill-rule="nonzero"/><path fill="#ffffff" d="M 350.867188 194.191406 C 350.652344 194.59375 350.152344 194.746094 349.746094 194.535156 C 349.34375 194.320312 349.1875 193.820312 349.402344 193.414062 C 349.617188 193.007812 350.117188 192.859375 350.519531 193.070312 C 350.921875 193.28125 351.078125 193.785156 350.867188 194.191406 Z M 350.867188 194.191406 " fill-opacity="1" fill-rule="nonzero"/><path fill="#0078b7" d="M 349.707031 194.609375 C 349.261719 194.371094 349.09375 193.816406 349.328125 193.371094 C 349.566406 192.925781 350.117188 192.757812 350.5625 192.996094 C 351.007812 193.230469 351.175781 193.785156 350.941406 194.230469 C 350.707031 194.671875 350.152344 194.84375 349.707031 194.609375 Z M 350.480469 193.140625 C 350.117188 192.953125 349.667969 193.089844 349.476562 193.453125 C 349.289062 193.816406 349.421875 194.265625 349.785156 194.457031 C 350.148438 194.648438 350.601562 194.511719 350.789062 194.148438 C 350.980469 193.789062 350.84375 193.335938 350.480469 193.140625 Z M 350.480469 193.140625 " fill-opacity="1" fill-rule="nonzero"/><path fill="#ffffff" d="M 346.539062 185.0625 C 346.324219 185.46875 345.824219 185.621094 345.417969 185.40625 C 345.015625 185.191406 344.863281 184.695312 345.074219 184.289062 C 345.289062 183.882812 345.789062 183.726562 346.195312 183.941406 C 346.597656 184.15625 346.75 184.65625 346.539062 185.0625 Z M 346.539062 185.0625 " fill-opacity="1" fill-rule="nonzero"/><path fill="#0078b7" d="M 345.378906 185.480469 C 344.9375 185.246094 344.765625 184.691406 345 184.246094 C 345.234375 183.800781 345.789062 183.632812 346.234375 183.863281 C 346.675781 184.101562 346.847656 184.652344 346.609375 185.097656 C 346.375 185.546875 345.824219 185.714844 345.378906 185.480469 Z M 346.15625 184.015625 C 345.792969 183.824219 345.339844 183.960938 345.152344 184.324219 C 344.960938 184.6875 345.097656 185.136719 345.460938 185.328125 C 345.820312 185.519531 346.273438 185.382812 346.464844 185.019531 C 346.652344 184.660156 346.515625 184.210938 346.15625 184.015625 Z M 346.15625 184.015625 " fill-opacity="1" fill-rule="nonzero"/><path fill="#ffffff" d="M 293.664062 163.871094 C 293.449219 164.277344 292.949219 164.429688 292.546875 164.21875 C 292.140625 164.003906 291.988281 163.503906 292.203125 163.097656 C 292.414062 162.691406 292.914062 162.539062 293.320312 162.753906 C 293.726562 162.96875 293.878906 163.46875 293.664062 163.871094 Z M 293.664062 163.871094 " fill-opacity="1" fill-rule="nonzero"/><path fill="#0078b7" d="M 292.507812 164.292969 C 292.0625 164.058594 291.894531 163.503906 292.128906 163.058594 C 292.363281 162.613281 292.917969 162.445312 293.363281 162.675781 C 293.808594 162.914062 293.976562 163.464844 293.742188 163.910156 C 293.503906 164.355469 292.949219 164.527344 292.507812 164.292969 Z M 293.28125 162.828125 C 292.917969 162.636719 292.46875 162.777344 292.277344 163.136719 C 292.085938 163.5 292.226562 163.949219 292.585938 164.140625 C 292.949219 164.332031 293.398438 164.195312 293.589844 163.832031 C 293.78125 163.46875 293.644531 163.019531 293.28125 162.828125 Z M 293.28125 162.828125 " fill-opacity="1" fill-rule="nonzero"/><path fill="#000000" d="M 243.261719 177.242188 L 242.828125 177.242188 L 242.882812 177.019531 L 243.414062 177.015625 L 243.636719 177.132812 L 242.625 179.039062 L 242.378906 178.90625 Z M 243.261719 177.242188 " fill-opacity="1" fill-rule="nonzero"/><path fill="#000000" d="M 245.105469 179.109375 C 244.765625 179.757812 244.335938 179.984375 243.910156 179.765625 C 243.539062 179.570312 243.46875 179.085938 243.800781 178.453125 C 244.136719 177.8125 244.597656 177.605469 244.984375 177.808594 C 245.390625 178.023438 245.425781 178.5 245.105469 179.109375 Z M 244.058594 178.589844 C 243.792969 179.085938 243.796875 179.449219 244.03125 179.574219 C 244.296875 179.714844 244.585938 179.472656 244.84375 178.988281 C 245.089844 178.519531 245.132812 178.144531 244.867188 178.003906 C 244.640625 177.882812 244.332031 178.070312 244.058594 178.589844 Z M 244.058594 178.589844 " fill-opacity="1" fill-rule="nonzero"/><path fill="#000000" d="M 244.730469 173.324219 L 244.816406 173.164062 L 245.121094 173.074219 C 245.851562 172.871094 246.203125 172.738281 246.359375 172.453125 C 246.460938 172.261719 246.460938 172.035156 246.175781 171.882812 C 246.003906 171.792969 245.8125 171.804688 245.6875 171.832031 L 245.703125 171.605469 C 245.890625 171.5625 246.125 171.578125 246.34375 171.695312 C 246.753906 171.914062 246.777344 172.285156 246.632812 172.558594 C 246.445312 172.910156 246.039062 173.058594 245.4375 173.234375 L 245.210938 173.292969 L 245.207031 173.300781 L 246.0625 173.753906 L 245.945312 173.96875 Z M 244.730469 173.324219 " fill-opacity="1" fill-rule="nonzero"/><path fill="#000000" d="M 248.015625 173.816406 C 247.671875 174.464844 247.242188 174.695312 246.820312 174.46875 C 246.449219 174.273438 246.378906 173.789062 246.707031 173.15625 C 247.046875 172.519531 247.511719 172.3125 247.898438 172.515625 C 248.300781 172.730469 248.335938 173.207031 248.015625 173.816406 Z M 246.964844 173.300781 C 246.703125 173.796875 246.707031 174.160156 246.941406 174.28125 C 247.203125 174.421875 247.496094 174.179688 247.753906 173.695312 C 248 173.226562 248.042969 172.855469 247.777344 172.710938 C 247.550781 172.589844 247.242188 172.777344 246.964844 173.300781 Z M 246.964844 173.300781 " fill-opacity="1" fill-rule="nonzero"/><path fill="#000000" d="M 247.777344 167.726562 C 247.824219 167.8125 247.953125 167.972656 248.132812 168.070312 C 248.464844 168.246094 248.675781 168.089844 248.757812 167.929688 C 248.898438 167.660156 248.71875 167.417969 248.46875 167.285156 L 248.324219 167.210938 L 248.425781 167.019531 L 248.570312 167.09375 C 248.757812 167.191406 249.042969 167.222656 249.164062 166.996094 C 249.246094 166.84375 249.222656 166.65625 248.984375 166.535156 C 248.832031 166.453125 248.648438 166.441406 248.535156 166.457031 L 248.566406 166.234375 C 248.703125 166.210938 248.9375 166.242188 249.140625 166.351562 C 249.515625 166.550781 249.566406 166.863281 249.445312 167.097656 C 249.34375 167.292969 249.136719 167.398438 248.855469 167.359375 L 248.851562 167.367188 C 249.0625 167.535156 249.160156 167.8125 249.019531 168.082031 C 248.855469 168.386719 248.476562 168.523438 248.019531 168.28125 C 247.804688 168.171875 247.65625 168.003906 247.59375 167.890625 Z M 247.777344 167.726562 " fill-opacity="1" fill-rule="nonzero"/><path fill="#000000" d="M 250.84375 168.484375 C 250.5 169.128906 250.070312 169.359375 249.648438 169.136719 C 249.277344 168.941406 249.210938 168.457031 249.535156 167.824219 C 249.875 167.183594 250.335938 166.976562 250.722656 167.179688 C 251.125 167.394531 251.164062 167.875 250.84375 168.484375 Z M 249.792969 167.960938 C 249.53125 168.457031 249.535156 168.820312 249.769531 168.945312 C 250.03125 169.085938 250.324219 168.84375 250.578125 168.359375 C 250.828125 167.890625 250.871094 167.515625 250.605469 167.375 C 250.378906 167.257812 250.070312 167.445312 249.792969 167.960938 Z M 249.792969 167.960938 " fill-opacity="1" fill-rule="nonzero"/><path fill="#000000" d="M 251.214844 163.09375 L 251.488281 162.578125 L 250.605469 162.109375 L 250.695312 161.9375 L 252.1875 161.167969 L 252.464844 161.316406 L 251.839844 162.503906 L 252.105469 162.644531 L 252 162.847656 L 251.734375 162.707031 L 251.460938 163.222656 Z M 251.597656 162.375 L 251.933594 161.738281 C 251.988281 161.636719 252.042969 161.542969 252.101562 161.445312 L 252.089844 161.4375 C 251.972656 161.519531 251.882812 161.574219 251.78125 161.636719 L 250.976562 162.039062 L 250.972656 162.042969 Z M 251.597656 162.375 " fill-opacity="1" fill-rule="nonzero"/><path fill="#000000" d="M 253.703125 163.167969 C 253.363281 163.816406 252.933594 164.046875 252.507812 163.824219 C 252.136719 163.628906 252.066406 163.144531 252.398438 162.511719 C 252.734375 161.871094 253.199219 161.664062 253.585938 161.867188 C 253.988281 162.082031 254.027344 162.558594 253.703125 163.167969 Z M 252.652344 162.648438 C 252.390625 163.144531 252.394531 163.507812 252.628906 163.632812 C 252.894531 163.773438 253.183594 163.53125 253.441406 163.042969 C 253.6875 162.574219 253.730469 162.203125 253.464844 162.058594 C 253.238281 161.941406 252.929688 162.128906 252.652344 162.648438 Z M 252.652344 162.648438 " fill-opacity="1" fill-rule="nonzero"/><path fill="#000000" d="M 255.234375 156.230469 L 254.507812 155.84375 L 254.175781 156.296875 C 254.21875 156.3125 254.265625 156.328125 254.339844 156.363281 C 254.484375 156.445312 254.613281 156.550781 254.691406 156.6875 C 254.796875 156.847656 254.835938 157.078125 254.703125 157.320312 C 254.507812 157.695312 254.0625 157.816406 253.648438 157.597656 C 253.441406 157.488281 253.296875 157.332031 253.238281 157.226562 L 253.40625 157.0625 C 253.460938 157.152344 253.585938 157.292969 253.757812 157.386719 C 254 157.515625 254.292969 157.464844 254.429688 157.210938 C 254.554688 156.960938 254.488281 156.699219 254.105469 156.496094 C 253.996094 156.4375 253.90625 156.402344 253.832031 156.375 L 254.4375 155.527344 L 255.351562 156.011719 Z M 255.234375 156.230469 " fill-opacity="1" fill-rule="nonzero"/><path fill="#000000" d="M 256.488281 157.808594 C 256.148438 158.457031 255.71875 158.6875 255.292969 158.460938 C 254.921875 158.265625 254.851562 157.78125 255.183594 157.148438 C 255.519531 156.511719 255.980469 156.304688 256.367188 156.507812 C 256.769531 156.722656 256.808594 157.199219 256.488281 157.808594 Z M 255.4375 157.289062 C 255.171875 157.785156 255.175781 158.148438 255.410156 158.273438 C 255.675781 158.410156 255.964844 158.167969 256.222656 157.683594 C 256.46875 157.214844 256.511719 156.84375 256.246094 156.699219 C 256.023438 156.582031 255.710938 156.769531 255.4375 157.289062 Z M 255.4375 157.289062 " fill-opacity="1" fill-rule="nonzero"/><path fill="#000000" d="M 258.035156 150.835938 C 257.984375 150.804688 257.914062 150.769531 257.835938 150.742188 C 257.398438 150.59375 257.027344 150.78125 256.816406 151.070312 L 256.824219 151.078125 C 256.976562 151.003906 257.191406 150.988281 257.402344 151.101562 C 257.738281 151.277344 257.847656 151.648438 257.648438 152.019531 C 257.464844 152.367188 257.058594 152.566406 256.660156 152.355469 C 256.253906 152.140625 256.15625 151.683594 256.414062 151.1875 C 256.617188 150.8125 256.90625 150.589844 257.191406 150.5 C 257.433594 150.425781 257.695312 150.441406 257.953125 150.539062 C 258.035156 150.566406 258.101562 150.601562 258.148438 150.625 Z M 257.378906 151.898438 C 257.527344 151.625 257.457031 151.375 257.21875 151.25 C 257.066406 151.171875 256.871094 151.191406 256.726562 151.292969 C 256.695312 151.3125 256.664062 151.34375 256.636719 151.390625 C 256.476562 151.710938 256.496094 152.015625 256.765625 152.160156 C 256.992188 152.273438 257.234375 152.167969 257.378906 151.898438 Z M 257.378906 151.898438 " fill-opacity="1" fill-rule="nonzero"/><path fill="#000000" d="M 259.320312 152.476562 C 258.980469 153.125 258.550781 153.355469 258.128906 153.132812 C 257.753906 152.933594 257.6875 152.449219 258.015625 151.816406 C 258.355469 151.179688 258.8125 150.972656 259.199219 151.175781 C 259.601562 151.390625 259.640625 151.871094 259.320312 152.476562 Z M 258.273438 151.960938 C 258.007812 152.457031 258.011719 152.820312 258.25 152.945312 C 258.511719 153.082031 258.800781 152.839844 259.058594 152.355469 C 259.308594 151.886719 259.347656 151.515625 259.082031 151.371094 C 258.855469 151.25 258.542969 151.441406 258.273438 151.960938 Z M 258.273438 151.960938 " fill-opacity="1" fill-rule="nonzero"/><path fill="#000000" d="M 261.070312 145.375 L 260.980469 145.546875 L 259.230469 146.839844 L 258.964844 146.699219 L 260.683594 145.449219 L 260.6875 145.441406 L 259.753906 144.949219 L 259.867188 144.734375 Z M 261.070312 145.375 " fill-opacity="1" fill-rule="nonzero"/><path fill="#000000" d="M 262.109375 147.121094 C 261.769531 147.769531 261.335938 148 260.914062 147.777344 C 260.542969 147.578125 260.476562 147.09375 260.804688 146.460938 C 261.140625 145.824219 261.605469 145.617188 261.992188 145.820312 C 262.390625 146.035156 262.429688 146.515625 262.109375 147.121094 Z M 261.0625 146.605469 C 260.796875 147.101562 260.800781 147.464844 261.035156 147.589844 C 261.300781 147.726562 261.589844 147.484375 261.847656 147 C 262.09375 146.53125 262.136719 146.160156 261.871094 146.019531 C 261.644531 145.898438 261.335938 146.085938 261.0625 146.605469 Z M 261.0625 146.605469 " fill-opacity="1" fill-rule="nonzero"/><path fill="#000000" d="M 261.90625 140.8125 C 262.035156 140.570312 262.265625 140.476562 262.554688 140.503906 L 262.554688 140.488281 C 262.398438 140.277344 262.390625 140.066406 262.480469 139.902344 C 262.640625 139.601562 263.003906 139.53125 263.335938 139.707031 C 263.707031 139.902344 263.769531 140.234375 263.644531 140.46875 C 263.558594 140.628906 263.386719 140.761719 263.09375 140.75 L 263.089844 140.757812 C 263.277344 140.980469 263.335938 141.226562 263.214844 141.457031 C 263.039062 141.785156 262.636719 141.859375 262.273438 141.667969 C 261.878906 141.453125 261.761719 141.089844 261.90625 140.8125 Z M 262.941406 141.34375 C 263.066406 141.113281 262.960938 140.917969 262.742188 140.703125 C 262.484375 140.652344 262.289062 140.734375 262.191406 140.917969 C 262.078125 141.105469 262.136719 141.351562 262.378906 141.484375 C 262.613281 141.605469 262.835938 141.539062 262.941406 141.34375 Z M 262.734375 140.011719 C 262.636719 140.203125 262.722656 140.382812 262.914062 140.558594 C 263.109375 140.585938 263.296875 140.535156 263.390625 140.363281 C 263.46875 140.210938 263.460938 140.003906 263.230469 139.882812 C 263.015625 139.769531 262.824219 139.847656 262.734375 140.011719 Z M 262.734375 140.011719 " fill-opacity="1" fill-rule="nonzero"/><path fill="#000000" d="M 264.960938 141.800781 C 264.621094 142.449219 264.191406 142.679688 263.765625 142.453125 C 263.394531 142.257812 263.328125 141.777344 263.65625 141.140625 C 263.992188 140.503906 264.457031 140.296875 264.839844 140.5 C 265.246094 140.714844 265.285156 141.195312 264.960938 141.800781 Z M 263.914062 141.285156 C 263.648438 141.78125 263.65625 142.140625 263.886719 142.265625 C 264.152344 142.40625 264.441406 142.164062 264.699219 141.679688 C 264.945312 141.210938 264.988281 140.839844 264.722656 140.695312 C 264.496094 140.574219 264.1875 140.761719 263.914062 141.285156 Z M 263.914062 141.285156 " fill-opacity="1" fill-rule="nonzero"/><path fill="#000000" d="M 264.738281 135.863281 C 264.789062 135.902344 264.859375 135.929688 264.949219 135.96875 C 265.109375 136.023438 265.28125 136.039062 265.445312 135.996094 C 265.632812 135.945312 265.8125 135.828125 265.964844 135.621094 L 265.957031 135.617188 C 265.78125 135.6875 265.589844 135.6875 265.398438 135.582031 C 265.058594 135.402344 264.972656 135.027344 265.144531 134.703125 C 265.335938 134.34375 265.765625 134.164062 266.15625 134.367188 C 266.546875 134.574219 266.617188 135.019531 266.363281 135.507812 C 266.140625 135.929688 265.84375 136.144531 265.558594 136.226562 C 265.335938 136.292969 265.089844 136.277344 264.871094 136.1875 C 264.769531 136.152344 264.6875 136.113281 264.625 136.078125 Z M 265.410156 134.816406 C 265.285156 135.054688 265.34375 135.296875 265.5625 135.417969 C 265.734375 135.507812 265.917969 135.496094 266.042969 135.417969 C 266.070312 135.402344 266.09375 135.378906 266.117188 135.335938 C 266.289062 135.007812 266.300781 134.695312 266.03125 134.554688 C 265.8125 134.4375 265.554688 134.546875 265.410156 134.816406 Z M 265.410156 134.816406 " fill-opacity="1" fill-rule="nonzero"/><path fill="#000000" d="M 267.78125 136.460938 C 267.4375 137.109375 267.003906 137.339844 266.585938 137.113281 C 266.214844 136.917969 266.148438 136.433594 266.472656 135.800781 C 266.8125 135.164062 267.273438 134.957031 267.660156 135.160156 C 268.0625 135.375 268.101562 135.855469 267.78125 136.460938 Z M 266.726562 135.941406 C 266.464844 136.441406 266.46875 136.804688 266.703125 136.925781 C 266.964844 137.066406 267.257812 136.824219 267.515625 136.335938 C 267.761719 135.867188 267.804688 135.496094 267.539062 135.351562 C 267.3125 135.234375 267.003906 135.421875 266.726562 135.941406 Z M 266.726562 135.941406 " fill-opacity="1" fill-rule="nonzero"/><path fill="#000000" d="M 267.914062 128.8125 L 267.480469 128.8125 L 267.535156 128.589844 L 268.070312 128.585938 L 268.289062 128.707031 L 267.285156 130.613281 L 267.035156 130.480469 Z M 267.914062 128.8125 " fill-opacity="1" fill-rule="nonzero"/><path fill="#000000" d="M 269.757812 130.675781 C 269.414062 131.324219 268.988281 131.554688 268.5625 131.328125 C 268.191406 131.132812 268.125 130.648438 268.449219 130.015625 C 268.789062 129.378906 269.253906 129.171875 269.636719 129.375 C 270.039062 129.589844 270.078125 130.070312 269.757812 130.675781 Z M 268.707031 130.160156 C 268.441406 130.65625 268.445312 131.019531 268.679688 131.140625 C 268.945312 131.28125 269.234375 131.039062 269.492188 130.554688 C 269.738281 130.085938 269.78125 129.714844 269.515625 129.570312 C 269.292969 129.449219 268.980469 129.636719 268.707031 130.160156 Z M 268.707031 130.160156 " fill-opacity="1" fill-rule="nonzero"/><path fill="#000000" d="M 271.261719 131.476562 C 270.917969 132.121094 270.488281 132.351562 270.066406 132.132812 C 269.695312 131.933594 269.628906 131.449219 269.953125 130.816406 C 270.292969 130.179688 270.753906 129.972656 271.140625 130.175781 C 271.542969 130.386719 271.582031 130.867188 271.261719 131.476562 Z M 270.210938 130.953125 C 269.949219 131.449219 269.949219 131.8125 270.1875 131.9375 C 270.449219 132.078125 270.742188 131.835938 270.996094 131.351562 C 271.246094 130.882812 271.289062 130.507812 271.019531 130.367188 C 270.792969 130.246094 270.484375 130.4375 270.210938 130.953125 Z M 270.210938 130.953125 " fill-opacity="1" fill-rule="nonzero"/><path fill="#000000" d="M 250.863281 191.25 L 250.859375 191.246094 L 250.492188 191.25 L 250.539062 191.058594 L 251 191.058594 L 251.191406 191.15625 L 250.324219 192.796875 L 250.109375 192.683594 Z M 250.863281 191.25 " fill-opacity="1" fill-rule="nonzero"/><path fill="#000000" d="M 256.671875 196.164062 L 256.746094 196.027344 L 257.007812 195.953125 C 257.636719 195.777344 257.941406 195.660156 258.074219 195.414062 C 258.160156 195.25 258.160156 195.050781 257.914062 194.921875 C 257.765625 194.84375 257.605469 194.851562 257.496094 194.878906 L 257.507812 194.683594 C 257.671875 194.648438 257.871094 194.664062 258.0625 194.761719 C 258.414062 194.949219 258.4375 195.269531 258.308594 195.507812 C 258.148438 195.808594 257.800781 195.9375 257.277344 196.089844 L 257.082031 196.140625 L 257.078125 196.140625 L 257.8125 196.53125 L 257.714844 196.71875 Z M 256.671875 196.164062 " fill-opacity="1" fill-rule="nonzero"/><path fill="#000000" d="M 264.03125 199.734375 C 264.074219 199.808594 264.183594 199.949219 264.339844 200.03125 C 264.621094 200.183594 264.808594 200.046875 264.875 199.910156 C 264.996094 199.679688 264.839844 199.472656 264.625 199.355469 L 264.5 199.289062 L 264.589844 199.125 L 264.714844 199.191406 C 264.875 199.277344 265.125 199.304688 265.222656 199.105469 C 265.292969 198.972656 265.273438 198.816406 265.066406 198.707031 C 264.9375 198.636719 264.78125 198.628906 264.683594 198.640625 L 264.710938 198.449219 C 264.828125 198.429688 265.027344 198.457031 265.207031 198.550781 C 265.53125 198.722656 265.574219 198.992188 265.46875 199.1875 C 265.382812 199.355469 265.203125 199.449219 264.960938 199.414062 L 264.957031 199.421875 C 265.140625 199.570312 265.222656 199.804688 265.101562 200.035156 C 264.960938 200.300781 264.636719 200.421875 264.242188 200.210938 C 264.058594 200.113281 263.925781 199.96875 263.871094 199.875 Z M 264.03125 199.734375 " fill-opacity="1" fill-rule="nonzero"/><path fill="#000000" d="M 271.660156 204.105469 L 271.894531 203.660156 L 271.132812 203.257812 L 271.210938 203.109375 L 272.496094 202.453125 L 272.734375 202.578125 L 272.199219 203.597656 L 272.425781 203.71875 L 272.335938 203.894531 L 272.105469 203.773438 L 271.871094 204.222656 Z M 271.984375 203.484375 L 272.277344 202.9375 C 272.320312 202.847656 272.371094 202.765625 272.421875 202.679688 L 272.414062 202.679688 C 272.3125 202.746094 272.234375 202.796875 272.148438 202.847656 L 271.453125 203.191406 L 271.449219 203.199219 Z M 271.984375 203.484375 " fill-opacity="1" fill-rule="nonzero"/><path fill="#000000" d="M 279.894531 206.609375 L 279.269531 206.277344 L 278.980469 206.664062 C 279.019531 206.679688 279.058594 206.691406 279.121094 206.726562 C 279.246094 206.792969 279.359375 206.886719 279.425781 207 C 279.515625 207.144531 279.546875 207.339844 279.4375 207.546875 C 279.269531 207.867188 278.886719 207.972656 278.53125 207.78125 C 278.351562 207.6875 278.226562 207.554688 278.175781 207.464844 L 278.320312 207.324219 C 278.371094 207.402344 278.476562 207.523438 278.625 207.601562 C 278.832031 207.710938 279.082031 207.671875 279.203125 207.449219 C 279.308594 207.238281 279.25 207.011719 278.921875 206.835938 C 278.828125 206.785156 278.75 206.757812 278.6875 206.730469 L 279.210938 206 L 279.992188 206.414062 Z M 279.894531 206.609375 " fill-opacity="1" fill-rule="nonzero"/><path fill="#000000" d="M 286.980469 210.328125 C 286.941406 210.300781 286.878906 210.273438 286.808594 210.25 C 286.429688 210.121094 286.109375 210.28125 285.929688 210.53125 L 285.9375 210.535156 C 286.070312 210.46875 286.25 210.457031 286.429688 210.554688 C 286.722656 210.710938 286.816406 211.027344 286.644531 211.347656 C 286.488281 211.648438 286.136719 211.816406 285.796875 211.640625 C 285.445312 211.453125 285.359375 211.0625 285.585938 210.628906 C 285.753906 210.308594 286.007812 210.117188 286.253906 210.039062 C 286.457031 209.976562 286.6875 209.988281 286.90625 210.074219 C 286.980469 210.097656 287.035156 210.125 287.074219 210.144531 Z M 286.417969 211.238281 C 286.542969 211.003906 286.484375 210.792969 286.28125 210.683594 C 286.148438 210.617188 285.976562 210.628906 285.855469 210.71875 C 285.828125 210.738281 285.800781 210.765625 285.78125 210.804688 C 285.640625 211.074219 285.660156 211.34375 285.894531 211.464844 C 286.082031 211.566406 286.296875 211.476562 286.417969 211.238281 Z M 286.417969 211.238281 " fill-opacity="1" fill-rule="nonzero"/><path fill="#000000" d="M 294.328125 214.019531 L 294.25 214.167969 L 292.75 215.285156 L 292.519531 215.164062 L 293.996094 214.085938 L 294 214.082031 L 293.199219 213.65625 L 293.296875 213.472656 Z M 294.328125 214.019531 " fill-opacity="1" fill-rule="nonzero"/><path fill="#000000" d="M 299.765625 218.46875 C 299.871094 218.261719 300.074219 218.179688 300.320312 218.203125 L 300.320312 218.191406 C 300.183594 218.011719 300.179688 217.828125 300.257812 217.6875 C 300.394531 217.425781 300.707031 217.367188 300.996094 217.519531 C 301.3125 217.6875 301.367188 217.96875 301.257812 218.175781 C 301.183594 218.3125 301.039062 218.425781 300.785156 218.414062 L 300.78125 218.421875 C 300.945312 218.609375 300.996094 218.824219 300.890625 219.023438 C 300.738281 219.308594 300.394531 219.371094 300.078125 219.203125 C 299.734375 219.023438 299.636719 218.707031 299.765625 218.46875 Z M 300.648438 218.925781 C 300.757812 218.726562 300.667969 218.554688 300.476562 218.378906 C 300.257812 218.332031 300.085938 218.402344 300.003906 218.558594 C 299.90625 218.722656 299.953125 218.933594 300.167969 219.046875 C 300.367188 219.148438 300.5625 219.09375 300.648438 218.925781 Z M 300.476562 217.78125 C 300.386719 217.945312 300.464844 218.097656 300.625 218.25 C 300.792969 218.277344 300.953125 218.234375 301.035156 218.082031 C 301.105469 217.953125 301.097656 217.773438 300.898438 217.667969 C 300.714844 217.570312 300.550781 217.640625 300.476562 217.78125 Z M 300.476562 217.78125 " fill-opacity="1" fill-rule="nonzero"/><path fill="#000000" d="M 306.914062 222.589844 C 306.960938 222.621094 307.019531 222.644531 307.101562 222.679688 C 307.238281 222.730469 307.386719 222.738281 307.527344 222.699219 C 307.6875 222.660156 307.839844 222.558594 307.972656 222.378906 L 307.964844 222.375 C 307.816406 222.441406 307.652344 222.4375 307.488281 222.347656 C 307.191406 222.191406 307.121094 221.871094 307.269531 221.589844 C 307.433594 221.277344 307.800781 221.125 308.136719 221.300781 C 308.472656 221.480469 308.535156 221.863281 308.3125 222.28125 C 308.121094 222.640625 307.867188 222.828125 307.625 222.898438 C 307.433594 222.957031 307.21875 222.9375 307.03125 222.867188 C 306.941406 222.835938 306.871094 222.800781 306.820312 222.773438 Z M 307.496094 221.6875 C 307.386719 221.894531 307.4375 222.105469 307.625 222.203125 C 307.773438 222.28125 307.929688 222.269531 308.039062 222.203125 C 308.066406 222.191406 308.085938 222.171875 308.105469 222.132812 C 308.253906 221.851562 308.261719 221.582031 308.03125 221.460938 C 307.839844 221.363281 307.621094 221.460938 307.496094 221.6875 Z M 307.496094 221.6875 " fill-opacity="1" fill-rule="nonzero"/><path fill="#000000" d="M 314.371094 224.90625 L 314.363281 224.902344 L 313.996094 224.90625 L 314.046875 224.714844 L 314.507812 224.714844 L 314.695312 224.8125 L 313.828125 226.453125 L 313.613281 226.34375 Z M 314.371094 224.90625 " fill-opacity="1" fill-rule="nonzero"/><path fill="#000000" d="M 315.957031 226.511719 C 315.660156 227.070312 315.292969 227.269531 314.929688 227.074219 C 314.609375 226.90625 314.550781 226.492188 314.832031 225.941406 C 315.121094 225.390625 315.523438 225.214844 315.855469 225.390625 C 316.199219 225.574219 316.234375 225.988281 315.957031 226.511719 Z M 315.054688 226.0625 C 314.828125 226.492188 314.828125 226.800781 315.03125 226.90625 C 315.257812 227.027344 315.507812 226.820312 315.730469 226.402344 C 315.945312 226 315.980469 225.679688 315.75 225.558594 C 315.558594 225.453125 315.292969 225.617188 315.054688 226.0625 Z M 315.054688 226.0625 " fill-opacity="1" fill-rule="nonzero"/><path fill="#000000" d="M 321.71875 228.800781 L 321.710938 228.796875 L 321.347656 228.800781 L 321.390625 228.609375 L 321.851562 228.605469 L 322.039062 228.707031 L 321.171875 230.347656 L 320.957031 230.230469 Z M 321.71875 228.800781 " fill-opacity="1" fill-rule="nonzero"/><path fill="#000000" d="M 323.011719 229.488281 L 323.007812 229.484375 L 322.640625 229.488281 L 322.6875 229.296875 L 323.144531 229.292969 L 323.335938 229.394531 L 322.46875 231.035156 L 322.253906 230.917969 Z M 323.011719 229.488281 " fill-opacity="1" fill-rule="nonzero"/><path fill="#000000" d="M 328.691406 232.496094 L 328.683594 232.492188 L 328.320312 232.496094 L 328.367188 232.304688 L 328.828125 232.300781 L 329.019531 232.402344 L 328.148438 234.042969 L 327.933594 233.929688 Z M 328.691406 232.496094 " fill-opacity="1" fill-rule="nonzero"/><path fill="#000000" d="M 328.746094 234.359375 L 328.816406 234.226562 L 329.082031 234.144531 C 329.710938 233.96875 330.011719 233.859375 330.144531 233.609375 C 330.234375 233.445312 330.234375 233.246094 329.992188 233.117188 C 329.84375 233.039062 329.675781 233.046875 329.566406 233.070312 L 329.582031 232.878906 C 329.742188 232.839844 329.941406 232.855469 330.132812 232.957031 C 330.488281 233.144531 330.503906 233.464844 330.382812 233.699219 C 330.222656 234 329.875 234.128906 329.351562 234.28125 L 329.152344 234.332031 L 329.152344 234.335938 L 329.886719 234.726562 L 329.789062 234.910156 Z M 328.746094 234.359375 " fill-opacity="1" fill-rule="nonzero"/><path fill="#ffffff" d="M 361.761719 173.585938 C 361.546875 173.992188 361.046875 174.144531 360.640625 173.933594 C 360.238281 173.71875 360.085938 173.21875 360.296875 172.8125 C 360.511719 172.40625 361.011719 172.25 361.417969 172.464844 C 361.820312 172.679688 361.976562 173.179688 361.761719 173.585938 Z M 361.761719 173.585938 " fill-opacity="1" fill-rule="nonzero"/><path fill="#da1f20" d="M 360.601562 174.003906 C 360.160156 173.769531 359.988281 173.214844 360.226562 172.769531 C 360.460938 172.324219 361.015625 172.15625 361.457031 172.386719 C 361.902344 172.625 362.074219 173.179688 361.835938 173.621094 C 361.601562 174.066406 361.046875 174.242188 360.601562 174.003906 Z M 361.378906 172.539062 C 361.015625 172.347656 360.5625 172.488281 360.375 172.847656 C 360.183594 173.210938 360.320312 173.664062 360.679688 173.851562 C 361.042969 174.042969 361.496094 173.90625 361.683594 173.542969 C 361.878906 173.183594 361.738281 172.734375 361.378906 172.539062 Z M 361.378906 172.539062 " fill-opacity="1" fill-rule="nonzero"/><path fill="#a1a1a1" d="M 242.523438 277.660156 L 244.0625 274.75 L 294.871094 301.679688 L 293.332031 304.589844 Z M 242.523438 277.660156 " fill-opacity="1" fill-rule="nonzero"/><path fill="#000000" d="M 333.558594 71.4375 C 333.054688 87.101562 319.96875 99.386719 304.324219 98.882812 C 288.679688 98.382812 276.402344 85.28125 276.90625 69.621094 C 277.40625 53.957031 290.496094 41.667969 306.136719 42.171875 C 321.785156 42.675781 334.058594 55.78125 333.558594 71.4375 Z M 333.558594 71.4375 " fill-opacity="1" fill-rule="nonzero"/><path fill="#231f20" d="M 305.363281 64.34375 C 313.488281 60.015625 320.21875 54.832031 324.640625 49.859375 C 319.789062 45.289062 313.320312 42.40625 306.140625 42.175781 C 290.5 41.671875 277.410156 53.960938 276.910156 69.621094 C 276.878906 70.605469 276.898438 71.574219 276.964844 72.535156 C 284.226562 72.839844 294.734375 69.996094 305.363281 64.34375 Z M 305.363281 64.34375 " fill-opacity="1" fill-rule="nonzero"/><path fill="#b20000" d="M 353.59375 72.082031 C 353.503906 74.929688 351.121094 77.164062 348.277344 77.074219 L 335.886719 76.675781 C 333.046875 76.585938 330.8125 74.203125 330.902344 71.355469 C 330.992188 68.507812 333.375 66.273438 336.21875 66.367188 L 348.609375 66.761719 C 351.453125 66.851562 353.683594 69.234375 353.59375 72.082031 Z M 353.59375 72.082031 " fill-opacity="1" fill-rule="nonzero"/><path fill="#ed0000" d="M 304.210938 102.433594 C 286.640625 101.867188 272.800781 87.097656 273.363281 69.507812 C 273.925781 51.917969 288.683594 38.066406 306.253906 38.628906 C 323.824219 39.191406 337.660156 53.964844 337.097656 71.554688 C 336.535156 89.140625 321.78125 102.996094 304.210938 102.433594 Z M 306.027344 45.71875 C 292.363281 45.277344 280.886719 56.050781 280.445312 69.734375 C 280.007812 83.417969 290.769531 94.90625 304.4375 95.34375 C 318.105469 95.78125 329.582031 85.007812 330.019531 71.324219 C 330.453125 57.644531 319.695312 46.15625 306.027344 45.71875 Z M 306.027344 45.71875 " fill-opacity="1" fill-rule="nonzero"/><path fill="#e32500" d="M 363.945312 332.472656 C 364.222656 334.152344 364.269531 335.542969 364.046875 335.578125 C 363.828125 335.617188 363.421875 334.285156 363.144531 332.605469 C 362.863281 330.925781 362.820312 329.535156 363.039062 329.5 C 363.261719 329.464844 363.667969 330.792969 363.945312 332.472656 Z M 363.945312 332.472656 " fill-opacity="1" fill-rule="evenodd"/><path fill="#ec2500" d="M 364.417969 336.929688 C 364.492188 337.363281 364.222656 337.769531 363.824219 337.835938 L 358.980469 338.640625 C 358.578125 338.707031 358.195312 338.410156 358.125 337.976562 L 356.660156 329.148438 C 356.585938 328.714844 356.851562 328.3125 357.253906 328.246094 L 362.101562 327.4375 C 362.503906 327.371094 362.886719 327.667969 362.957031 328.101562 Z M 364.417969 336.929688 " fill-opacity="1" fill-rule="evenodd"/><path fill="#ff2500" d="M 362.472656 335.304688 C 362.742188 336.949219 361.625 338.507812 359.984375 338.777344 L 266.832031 354.03125 C 265.191406 354.300781 263.625 353.179688 263.351562 351.535156 L 262.597656 346.972656 C 262.324219 345.328125 263.445312 343.761719 265.082031 343.484375 L 358.15625 327.789062 C 359.796875 327.511719 361.363281 328.628906 361.632812 330.273438 Z M 362.472656 335.304688 " fill-opacity="1" fill-rule="evenodd"/><path fill="#ffffff" d="M 362.390625 338.574219 L 263.269531 354.796875 L 261.464844 343.914062 L 360.503906 327.203125 Z M 362.390625 338.574219 " fill-opacity="1" fill-rule="evenodd"/><path fill="#ebebeb" d="M 262.382812 349.429688 L 361.457031 332.964844 L 360.503906 327.203125 L 261.464844 343.914062 Z M 262.382812 349.429688 " fill-opacity="1" fill-rule="evenodd"/><path fill="#ec2500" d="M 244.707031 343.863281 L 227.375 346.746094 C 227.363281 346.746094 227.359375 346.75 227.347656 346.753906 C 227.339844 346.753906 227.335938 346.753906 227.328125 346.753906 C 227.136719 346.785156 226.996094 346.925781 226.945312 347.097656 C 226.921875 347.160156 226.917969 347.226562 226.929688 347.296875 C 226.929688 347.300781 226.929688 347.304688 226.929688 347.304688 C 226.929688 347.308594 226.929688 347.308594 226.929688 347.3125 L 227.375 350.011719 C 227.417969 350.273438 227.671875 350.453125 227.933594 350.410156 C 228.195312 350.367188 228.375 350.117188 228.328125 349.851562 L 227.957031 347.601562 L 243.34375 345.042969 C 243.414062 345.167969 243.734375 345.222656 244.101562 345.160156 C 244.472656 345.101562 244.757812 344.945312 244.78125 344.804688 L 244.859375 344.792969 C 245.152344 344.742188 245.351562 344.496094 245.308594 344.242188 C 245.265625 343.984375 244.996094 343.816406 244.707031 343.863281 Z M 244.707031 343.863281 " fill-opacity="1" fill-rule="evenodd"/><path fill="#e32500" d="M 231.214844 354.546875 C 231.523438 356.40625 230.929688 358.054688 229.890625 358.226562 C 228.847656 358.398438 227.757812 357.03125 227.449219 355.175781 C 227.140625 353.316406 227.734375 351.667969 228.773438 351.496094 C 229.816406 351.324219 230.910156 352.691406 231.214844 354.546875 Z M 231.214844 354.546875 " fill-opacity="1" fill-rule="evenodd"/><path fill="#ff2500" d="M 263.417969 351.921875 C 263.6875 353.5625 262.570312 355.128906 260.925781 355.402344 L 232.128906 360.1875 C 230.488281 360.460938 228.925781 359.339844 228.652344 357.695312 L 227.773438 352.390625 C 227.5 350.75 228.621094 349.183594 230.261719 348.910156 L 259.058594 344.125 C 260.699219 343.851562 262.265625 344.972656 262.535156 346.617188 Z M 263.417969 351.921875 " fill-opacity="1" fill-rule="evenodd"/><g clip-path="url(#c633eee351)"><path fill="#e32500" d="M 232.222656 359.910156 C 232.316406 360.46875 232.066406 360.976562 231.664062 361.042969 L 231.121094 361.136719 C 230.71875 361.203125 230.320312 360.800781 230.226562 360.242188 L 228.460938 349.601562 C 228.367188 349.042969 228.617188 348.53125 229.019531 348.464844 L 229.5625 348.375 C 229.964844 348.308594 230.363281 348.707031 230.457031 349.269531 Z M 232.222656 359.910156 " fill-opacity="1" fill-rule="evenodd"/></g><path fill="#e32500" d="M 236.039062 359.277344 C 236.132812 359.835938 235.882812 360.34375 235.480469 360.410156 L 234.9375 360.503906 C 234.535156 360.570312 234.136719 360.167969 234.042969 359.609375 L 232.277344 348.96875 C 232.183594 348.410156 232.433594 347.898438 232.835938 347.832031 L 233.378906 347.742188 C 233.78125 347.675781 234.179688 348.074219 234.273438 348.636719 Z M 236.039062 359.277344 " fill-opacity="1" fill-rule="evenodd"/><path fill="#e32500" d="M 239.855469 358.640625 C 239.949219 359.199219 239.699219 359.710938 239.296875 359.777344 L 238.753906 359.867188 C 238.351562 359.933594 237.953125 359.535156 237.859375 358.972656 L 236.09375 348.332031 C 236 347.773438 236.25 347.265625 236.652344 347.199219 L 237.195312 347.105469 C 237.597656 347.039062 237.996094 347.441406 238.089844 348 Z M 239.855469 358.640625 " fill-opacity="1" fill-rule="evenodd"/><path fill="#e32500" d="M 243.671875 358.007812 C 243.765625 358.566406 243.515625 359.078125 243.113281 359.144531 L 242.570312 359.234375 C 242.167969 359.300781 241.769531 358.902344 241.675781 358.339844 L 239.90625 347.699219 C 239.8125 347.140625 240.066406 346.632812 240.46875 346.566406 L 241.011719 346.472656 C 241.414062 346.40625 241.8125 346.808594 241.90625 347.367188 Z M 243.671875 358.007812 " fill-opacity="1" fill-rule="evenodd"/><path fill="#e32500" d="M 247.484375 357.371094 C 247.578125 357.933594 247.328125 358.441406 246.925781 358.507812 L 246.382812 358.597656 C 245.980469 358.664062 245.582031 358.265625 245.488281 357.707031 L 243.722656 347.066406 C 243.628906 346.503906 243.878906 345.996094 244.28125 345.929688 L 244.824219 345.839844 C 245.226562 345.773438 245.625 346.171875 245.71875 346.730469 Z M 247.484375 357.371094 " fill-opacity="1" fill-rule="evenodd"/><path fill="#e32500" d="M 251.300781 356.738281 C 251.394531 357.300781 251.144531 357.808594 250.742188 357.875 L 250.199219 357.964844 C 249.796875 358.03125 249.398438 357.632812 249.304688 357.074219 L 247.539062 346.429688 C 247.445312 345.867188 247.695312 345.359375 248.097656 345.292969 L 248.640625 345.203125 C 249.042969 345.136719 249.441406 345.535156 249.535156 346.097656 Z M 251.300781 356.738281 " fill-opacity="1" fill-rule="evenodd"/><path fill="#e32500" d="M 255.117188 356.105469 C 255.210938 356.664062 254.960938 357.171875 254.558594 357.238281 L 254.015625 357.328125 C 253.613281 357.394531 253.214844 356.996094 253.121094 356.4375 L 251.355469 345.796875 C 251.261719 345.234375 251.511719 344.726562 251.914062 344.660156 L 252.457031 344.570312 C 252.859375 344.503906 253.257812 344.902344 253.351562 345.464844 Z M 255.117188 356.105469 " fill-opacity="1" fill-rule="evenodd"/><path fill="#e32500" d="M 258.933594 355.472656 C 259.027344 356.03125 258.777344 356.539062 258.375 356.605469 L 257.832031 356.695312 C 257.429688 356.765625 257.03125 356.363281 256.9375 355.804688 L 255.171875 345.164062 C 255.078125 344.601562 255.328125 344.09375 255.730469 344.027344 L 256.273438 343.9375 C 256.675781 343.871094 257.074219 344.269531 257.167969 344.832031 Z M 258.933594 355.472656 " fill-opacity="1" fill-rule="evenodd"/><path fill="#e32500" d="M 262.746094 354.835938 C 262.839844 355.394531 262.589844 355.902344 262.1875 355.96875 L 261.644531 356.0625 C 261.242188 356.128906 260.84375 355.726562 260.75 355.167969 L 258.984375 344.527344 C 258.890625 343.96875 259.140625 343.460938 259.542969 343.390625 L 260.085938 343.300781 C 260.488281 343.234375 260.886719 343.632812 260.980469 344.195312 Z M 262.746094 354.835938 " fill-opacity="1" fill-rule="evenodd"/><path fill="#bcbec0" d="M 118.128906 125.96875 L 250.75 125.96875 L 250.75 301.347656 L 118.128906 301.347656 Z M 118.128906 125.96875 " fill-opacity="1" fill-rule="nonzero"/><path fill="#f1f2f2" d="M 121.625 129.0625 L 247.257812 129.0625 L 247.257812 298.257812 L 121.625 298.257812 Z M 121.625 129.0625 " fill-opacity="1" fill-rule="nonzero"/><path fill="#ffffff" d="M 220.214844 166.871094 L 242.1875 166.871094 L 242.1875 188.867188 L 220.214844 188.867188 Z M 220.214844 166.871094 " fill-opacity="1" fill-rule="nonzero"/><path fill="#ed1c24" d="M 231.203125 187.425781 L 224.695312 169.449219 C 224.535156 169.007812 224.761719 168.523438 225.203125 168.363281 C 225.640625 168.203125 226.128906 168.429688 226.289062 168.871094 L 231.207031 182.453125 L 236.121094 168.871094 C 236.28125 168.429688 236.765625 168.203125 237.207031 168.363281 C 237.644531 168.523438 237.871094 169.007812 237.714844 169.449219 Z M 231.203125 187.425781 " fill-opacity="1" fill-rule="nonzero"/><path fill="#ffffff" d="M 220.214844 192.46875 L 242.1875 192.46875 L 242.1875 214.464844 L 220.214844 214.464844 Z M 220.214844 192.46875 " fill-opacity="1" fill-rule="nonzero"/><path fill="#ffffff" d="M 220.214844 218.066406 L 242.1875 218.066406 L 242.1875 240.0625 L 220.214844 240.0625 Z M 220.214844 218.066406 " fill-opacity="1" fill-rule="nonzero"/><path fill="#ffffff" d="M 220.214844 243.660156 L 242.1875 243.660156 L 242.1875 265.660156 L 220.214844 265.660156 Z M 220.214844 243.660156 " fill-opacity="1" fill-rule="nonzero"/><path fill="#ffffff" d="M 220.214844 269.257812 L 242.1875 269.257812 L 242.1875 291.257812 L 220.214844 291.257812 Z M 220.214844 269.257812 " fill-opacity="1" fill-rule="nonzero"/><path fill="#939598" d="M 128.785156 172.042969 L 179.121094 172.042969 L 179.121094 173.265625 L 128.785156 173.265625 Z M 128.785156 172.042969 " fill-opacity="1" fill-rule="nonzero"/><path fill="#939598" d="M 149.265625 177.753906 L 195.933594 177.753906 L 195.933594 178.976562 L 149.265625 178.976562 Z M 149.265625 177.753906 " fill-opacity="1" fill-rule="nonzero"/><path fill="#939598" d="M 135.609375 193.816406 L 175.144531 193.816406 L 175.144531 195.039062 L 135.609375 195.039062 Z M 135.609375 193.816406 " fill-opacity="1" fill-rule="nonzero"/><path fill="#939598" d="M 138.003906 202.855469 L 177.539062 202.855469 L 177.539062 204.078125 L 138.003906 204.078125 Z M 138.003906 202.855469 " fill-opacity="1" fill-rule="nonzero"/><path fill="#939598" d="M 153.796875 198.023438 L 196.492188 198.023438 L 196.492188 199.246094 L 153.796875 199.246094 Z M 153.796875 198.023438 " fill-opacity="1" fill-rule="nonzero"/><path fill="#939598" d="M 153.796875 207.707031 L 196.492188 207.707031 L 196.492188 208.929688 L 153.796875 208.929688 Z M 153.796875 207.707031 " fill-opacity="1" fill-rule="nonzero"/><path fill="#939598" d="M 144.679688 219.777344 L 192.160156 219.777344 L 192.160156 221.003906 L 144.679688 221.003906 Z M 144.679688 219.777344 " fill-opacity="1" fill-rule="nonzero"/><path fill="#939598" d="M 128.785156 224.066406 L 186.761719 224.066406 L 186.761719 225.292969 L 128.785156 225.292969 Z M 128.785156 224.066406 " fill-opacity="1" fill-rule="nonzero"/><path fill="#939598" d="M 147.835938 227.941406 L 195.015625 227.941406 L 195.015625 229.164062 L 147.835938 229.164062 Z M 147.835938 227.941406 " fill-opacity="1" fill-rule="nonzero"/><path fill="#939598" d="M 134.183594 233.585938 L 181.160156 233.585938 L 181.160156 234.808594 L 134.183594 234.808594 Z M 134.183594 233.585938 " fill-opacity="1" fill-rule="nonzero"/><path fill="#939598" d="M 134.183594 249.132812 L 181.160156 249.132812 L 181.160156 250.355469 L 134.183594 250.355469 Z M 134.183594 249.132812 " fill-opacity="1" fill-rule="nonzero"/><path fill="#939598" d="M 159.554688 255.648438 L 195.933594 255.648438 L 195.933594 256.871094 L 159.554688 256.871094 Z M 159.554688 255.648438 " fill-opacity="1" fill-rule="nonzero"/><path fill="#939598" d="M 151.507812 261.15625 L 193.691406 261.15625 L 193.691406 262.378906 L 151.507812 262.378906 Z M 151.507812 261.15625 " fill-opacity="1" fill-rule="nonzero"/><path fill="#939598" d="M 132.960938 276.292969 L 192.164062 276.292969 L 192.164062 277.515625 L 132.960938 277.515625 Z M 132.960938 276.292969 " fill-opacity="1" fill-rule="nonzero"/><path fill="#939598" d="M 134.691406 284.042969 L 198.988281 284.042969 L 198.988281 285.265625 L 134.691406 285.265625 Z M 134.691406 284.042969 " fill-opacity="1" fill-rule="nonzero"/><path fill="#939598" d="M 157.773438 290.570312 L 203.472656 290.570312 L 203.472656 291.792969 L 157.773438 291.792969 Z M 157.773438 290.570312 " fill-opacity="1" fill-rule="nonzero"/><path fill="#bcbec0" d="M 160.648438 136.910156 L 208.234375 136.910156 C 210.933594 136.910156 213.125 134.714844 213.125 132.015625 L 213.125 125.972656 L 210.679688 125.972656 L 210.679688 132.015625 C 210.679688 133.363281 209.582031 134.464844 208.230469 134.464844 L 160.648438 134.464844 C 159.300781 134.464844 158.203125 133.363281 158.203125 132.015625 L 158.203125 125.972656 L 155.757812 125.972656 L 155.757812 132.015625 C 155.757812 134.710938 157.953125 136.910156 160.648438 136.910156 Z M 160.648438 136.910156 " fill-opacity="1" fill-rule="nonzero"/><path fill="#d1d3d4" d="M 210.679688 131.09375 L 210.679688 132.011719 C 210.679688 133.359375 209.582031 134.460938 208.230469 134.460938 L 160.648438 134.460938 C 159.300781 134.460938 158.203125 133.359375 158.203125 132.011719 L 158.203125 125.96875 L 155.757812 125.96875 L 155.757812 131.09375 C 155.757812 133.792969 157.953125 135.988281 160.648438 135.988281 L 208.234375 135.988281 C 210.933594 135.988281 213.125 133.789062 213.125 131.09375 L 213.125 125.96875 L 210.679688 125.96875 Z M 210.679688 131.09375 " fill-opacity="1" fill-rule="nonzero"/><path fill="#000000" d="M 154.734375 141.796875 C 155.910156 141.601562 157.449219 141.433594 159.40625 141.433594 C 161.816406 141.433594 163.582031 141.996094 164.699219 143.003906 C 165.738281 143.902344 166.351562 145.277344 166.351562 146.960938 C 166.351562 148.667969 165.84375 150.015625 164.894531 150.996094 C 163.605469 152.367188 161.503906 153.066406 159.125 153.066406 C 158.398438 153.066406 157.726562 153.039062 157.167969 152.898438 L 157.167969 160.464844 L 154.734375 160.464844 Z M 157.167969 150.910156 C 157.699219 151.050781 158.371094 151.105469 159.183594 151.105469 C 162.121094 151.105469 163.917969 149.679688 163.917969 147.070312 C 163.917969 144.578125 162.152344 143.371094 159.464844 143.371094 C 158.402344 143.371094 157.589844 143.457031 157.167969 143.570312 Z M 157.167969 150.910156 " fill-opacity="1" fill-rule="nonzero"/><path fill="#000000" d="M 169.628906 141.574219 L 172.066406 141.574219 L 172.066406 158.421875 L 180.128906 158.421875 L 180.128906 160.464844 L 169.632812 160.464844 L 169.632812 141.574219 Z M 169.628906 141.574219 " fill-opacity="1" fill-rule="nonzero"/><path fill="#000000" d="M 185.898438 154.523438 L 183.9375 160.464844 L 181.417969 160.464844 L 187.832031 141.574219 L 190.773438 141.574219 L 197.210938 160.464844 L 194.605469 160.464844 L 192.589844 154.523438 Z M 192.085938 152.621094 L 190.238281 147.183594 C 189.816406 145.953125 189.539062 144.828125 189.257812 143.734375 L 189.199219 143.734375 C 188.917969 144.859375 188.609375 146.003906 188.246094 147.15625 L 186.398438 152.625 L 192.085938 152.625 Z M 192.085938 152.621094 " fill-opacity="1" fill-rule="nonzero"/><path fill="#000000" d="M 199.984375 160.464844 L 199.984375 141.574219 L 202.640625 141.574219 L 208.6875 151.132812 C 210.089844 153.347656 211.179688 155.339844 212.078125 157.273438 L 212.132812 157.246094 C 211.910156 154.722656 211.851562 152.421875 211.851562 149.480469 L 211.851562 141.578125 L 214.148438 141.578125 L 214.148438 160.46875 L 211.683594 160.46875 L 205.691406 150.882812 C 204.375 148.78125 203.117188 146.625 202.164062 144.578125 L 202.078125 144.605469 C 202.21875 146.988281 202.273438 149.257812 202.273438 152.394531 L 202.273438 160.46875 L 199.984375 160.46875 Z M 199.984375 160.464844 " fill-opacity="1" fill-rule="nonzero"/></svg>