<svg xmlns="http://www.w3.org/2000/svg" xmlns:xlink="http://www.w3.org/1999/xlink" width="500" zoomAndPan="magnify" viewBox="0 0 375 374.999991" height="500" preserveAspectRatio="xMidYMid meet" version="1.0"><defs><clipPath id="c58419eb49"><path d="M 0 16.683594 L 375 16.683594 L 375 358.316406 L 0 358.316406 Z M 0 16.683594 " clip-rule="nonzero"/></clipPath></defs><g clip-path="url(#c58419eb49)"><path fill="#022350" d="M 79.898438 155.445312 C 74.144531 155.445312 69.476562 160.113281 69.476562 165.871094 C 69.476562 171.628906 74.144531 176.296875 79.898438 176.296875 C 85.664062 176.296875 90.328125 171.628906 90.328125 165.871094 C 90.328125 160.113281 85.664062 155.445312 79.898438 155.445312 Z M 79.320312 73.277344 C 92.402344 74.042969 109.429688 83.378906 123.828125 98.921875 L 129.953125 106.28125 L 137.625 104.34375 L 151.417969 101.746094 L 153.09375 105.964844 C 154.550781 109 156.226562 111.914062 158.09375 114.683594 L 161.597656 119.363281 L 160.5625 120.84375 C 160.28125 121.476562 160.125 122.179688 160.125 122.9375 C 160.125 125.699219 162.582031 128.46875 165.496094 128.296875 L 165.496094 128.304688 C 178.078125 127.539062 190.710938 127.136719 203.265625 128.097656 C 213.929688 128.953125 224.488281 130.898438 234.753906 133.898438 C 241.402344 135.808594 247.949219 138.0625 254.445312 140.460938 C 257.167969 141.46875 260.328125 139.339844 261.042969 136.734375 C 261.65625 134.484375 260.773438 132.460938 259.148438 131.167969 L 258.203125 130.636719 L 259.816406 129.433594 C 263.664062 126.25 267.179688 122.660156 270.273438 118.726562 L 270.632812 118.207031 L 271.949219 118.792969 C 308.453125 136.855469 334.007812 165.871094 339.828125 199.402344 L 340.019531 200.824219 L 340.25 200.707031 C 349.417969 195.269531 356.921875 186.886719 361.433594 176.007812 C 362.277344 173.832031 362.917969 171.582031 363.339844 169.285156 C 364.527344 163.410156 372.929688 163.511719 374.054688 169.398438 C 377.660156 188.359375 370.871094 207.695312 355.066406 218.242188 C 351 220.957031 346.617188 222.898438 342.089844 224.097656 L 340.375 224.453125 L 339.828125 228.65625 C 334.007812 262.1875 308.453125 291.207031 271.949219 309.265625 L 270.441406 309.933594 L 270.8125 313.636719 L 270.8125 329.789062 C 270.8125 345.542969 258.039062 358.316406 242.285156 358.316406 C 226.535156 358.316406 213.75 345.542969 213.75 329.789062 L 213.75 326.78125 L 200.296875 328.289062 C 195.03125 328.679688 189.671875 328.878906 184.265625 328.878906 C 178.84375 328.878906 173.5 328.679688 168.230469 328.289062 L 154.769531 326.78125 L 154.769531 329.789062 C 154.769531 345.542969 141.996094 358.316406 126.246094 358.316406 C 110.480469 358.316406 97.707031 345.542969 97.707031 329.789062 L 97.707031 313.636719 L 98.078125 309.933594 L 96.582031 309.265625 C 70.511719 296.367188 50.015625 277.875 38.316406 256.144531 L 35.59375 250.601562 L 33.691406 251.191406 C 31.863281 251.566406 29.96875 251.761719 28.039062 251.761719 C 12.554688 251.761719 0 239.210938 0 223.726562 L 0 204.332031 C 0 188.847656 12.554688 176.296875 28.039062 176.296875 C 29.96875 176.296875 31.863281 176.496094 33.691406 176.867188 L 35.570312 177.453125 L 35.671875 177.195312 C 43.6875 159.851562 57.203125 144.363281 74.707031 131.851562 L 75.242188 131.484375 L 73.863281 129.824219 C 58.597656 109.328125 54.222656 87.320312 64.554688 77.765625 C 68.25 74.351562 73.375 72.929688 79.320312 73.277344 Z M 214.015625 32.582031 L 214.015625 41.230469 C 208.828125 41.71875 204.671875 43.460938 201.5625 46.453125 C 198.445312 49.445312 196.882812 53.25 196.882812 57.867188 C 196.882812 60.625 197.320312 62.976562 198.203125 64.914062 C 199.070312 66.855469 200.324219 68.5625 201.972656 70.039062 C 203.609375 71.511719 205.566406 72.8125 207.828125 73.929688 C 210.09375 75.050781 212.574219 76.15625 215.246094 77.25 C 217.929688 78.34375 219.796875 79.503906 220.859375 80.734375 C 221.929688 81.964844 222.457031 83.65625 222.457031 85.816406 C 222.457031 87.753906 221.929688 89.277344 220.859375 90.382812 C 219.796875 91.492188 218.339844 92.042969 216.472656 92.042969 C 213.941406 92.042969 211.972656 91.230469 210.589844 89.605469 C 209.222656 87.980469 208.53125 85.609375 208.53125 82.496094 L 194.710938 82.496094 C 194.710938 88.152344 196.308594 92.707031 199.492188 96.164062 C 202.675781 99.617188 207.242188 101.660156 213.199219 102.289062 L 213.199219 110.566406 L 219.71875 110.566406 L 219.71875 102.328125 C 224.820312 101.839844 228.859375 100.117188 231.828125 97.167969 C 234.792969 94.214844 236.277344 90.402344 236.277344 85.734375 C 236.277344 82.972656 235.804688 80.609375 234.882812 78.644531 C 233.949219 76.675781 232.671875 74.957031 231.023438 73.480469 C 229.386719 72.003906 227.441406 70.6875 225.191406 69.523438 C 222.929688 68.363281 220.539062 67.246094 217.992188 66.164062 C 215.449219 65.085938 213.609375 63.953125 212.457031 62.765625 C 211.320312 61.574219 210.742188 59.96875 210.742188 57.949219 C 210.742188 55.953125 211.242188 54.390625 212.238281 53.257812 C 213.238281 52.121094 214.632812 51.554688 216.433594 51.554688 C 218.453125 51.554688 220.011719 52.320312 221.113281 53.851562 C 222.199219 55.378906 222.75 57.566406 222.75 60.40625 L 236.597656 60.40625 C 236.597656 55.21875 235.175781 50.933594 232.3125 47.5625 C 229.460938 44.1875 225.535156 42.132812 220.539062 41.394531 L 220.539062 32.582031 Z M 215.652344 16.683594 C 248.359375 16.683594 274.863281 43.1875 274.863281 75.878906 C 274.863281 96.308594 264.507812 114.324219 248.753906 124.960938 L 246.363281 126.417969 L 240.507812 124.425781 C 234.832031 122.710938 229.105469 121.226562 223.273438 120.078125 C 211.894531 117.898438 200.324219 116.804688 188.726562 116.8125 C 184.851562 116.796875 180.980469 116.867188 177.105469 117.003906 L 173.308594 117.191406 L 169.972656 113.527344 C 161.53125 103.296875 156.457031 90.179688 156.457031 75.878906 C 156.457031 43.1875 182.960938 16.683594 215.652344 16.683594 Z M 215.652344 16.683594 " fill-opacity="1" fill-rule="evenodd"/></g></svg>