<svg xmlns="http://www.w3.org/2000/svg" xmlns:xlink="http://www.w3.org/1999/xlink" width="500" zoomAndPan="magnify" viewBox="0 0 375 374.999991" height="500" preserveAspectRatio="xMidYMid meet" version="1.0"><defs><clipPath id="7b055d8bc6"><path d="M 59 102 L 375 102 L 375 280.6875 L 59 280.6875 Z M 59 102 " clip-rule="nonzero"/></clipPath><clipPath id="d48199d1cb"><path d="M 0 94.6875 L 286 94.6875 L 286 260 L 0 260 Z M 0 94.6875 " clip-rule="nonzero"/></clipPath></defs><g clip-path="url(#7b055d8bc6)"><path fill="#e51e25" d="M 215.882812 243.011719 L 215.882812 224.980469 L 208.179688 224.980469 L 208.179688 181.703125 L 215.882812 181.703125 L 215.882812 163.671875 L 218.398438 163.671875 L 218.398438 181.703125 L 226.101562 181.703125 L 226.101562 224.980469 C 223.53125 224.980469 220.964844 224.980469 218.398438 224.980469 L 218.398438 243.011719 Z M 364.367188 265.660156 L 364.367188 241.910156 L 356.664062 241.910156 L 356.664062 185.035156 L 364.367188 185.035156 L 364.367188 161.285156 L 366.878906 161.285156 L 366.878906 185.035156 L 374.585938 185.035156 L 374.585938 241.910156 L 366.878906 241.910156 L 366.878906 265.660156 Z M 297.367188 123.621094 L 304.972656 123.621094 L 304.972656 102.550781 L 307.484375 102.550781 L 307.484375 123.621094 L 315.191406 123.621094 L 315.191406 174.121094 L 307.484375 174.121094 L 307.484375 195.191406 L 304.972656 195.191406 L 304.972656 174.121094 L 297.269531 174.121094 L 297.269531 123.621094 Z M 327.0625 155.054688 L 334.671875 155.054688 L 334.671875 140.671875 L 337.183594 140.671875 L 337.183594 155.054688 L 344.886719 155.054688 L 344.886719 189.667969 L 337.183594 189.667969 L 337.183594 204.054688 L 334.671875 204.054688 L 334.671875 189.667969 L 326.964844 189.667969 L 326.964844 155.054688 Z M 59.792969 174.726562 L 67.402344 174.726562 L 67.402344 157.300781 L 69.914062 157.300781 L 69.914062 174.726562 L 77.617188 174.726562 L 77.617188 216.558594 L 69.914062 216.558594 L 69.914062 233.984375 L 67.402344 233.984375 L 67.402344 216.558594 L 59.695312 216.558594 L 59.695312 174.726562 Z M 89.488281 218.144531 L 97.097656 218.144531 L 97.097656 204.71875 L 99.609375 204.71875 L 99.609375 218.144531 L 107.3125 218.144531 L 107.3125 250.46875 L 99.609375 250.46875 L 99.609375 263.890625 L 97.097656 263.890625 L 97.097656 250.46875 L 89.394531 250.46875 L 89.394531 218.144531 Z M 119.1875 238.132812 L 126.792969 238.132812 L 126.792969 225.769531 L 129.308594 225.769531 L 129.308594 238.132812 L 137.011719 238.132812 L 137.011719 267.929688 L 129.308594 267.929688 L 129.308594 280.292969 L 126.792969 280.292969 L 126.792969 267.929688 L 119.089844 267.929688 L 119.089844 238.132812 Z M 119.1875 238.132812 " fill-opacity="1" fill-rule="evenodd"/></g><g clip-path="url(#d48199d1cb)"><path fill="#022350" d="M 237.972656 118.980469 L 245.582031 118.980469 L 245.582031 98.121094 L 248.09375 98.121094 L 248.09375 118.980469 L 255.703125 118.980469 L 255.703125 168.566406 L 248.09375 168.566406 L 248.09375 189.425781 L 245.582031 189.425781 L 245.582031 168.566406 L 237.972656 168.566406 Z M 37.703125 199.175781 L 37.703125 181.355469 L 30.09375 181.355469 L 30.09375 138.992188 L 37.703125 138.992188 L 37.703125 121.167969 L 40.21875 121.167969 L 40.21875 138.992188 L 47.824219 138.992188 L 47.824219 181.355469 L 40.21875 181.355469 L 40.21875 199.175781 Z M 8.007812 259.015625 L 8.007812 231.976562 L 0.398438 231.976562 L 0.398438 167.707031 L 8.007812 167.707031 L 8.007812 140.671875 L 10.519531 140.671875 L 10.519531 167.707031 L 18.128906 167.707031 L 18.128906 231.976562 L 10.519531 231.976562 L 10.519531 259.015625 Z M 186.1875 227.542969 L 186.1875 207.695312 L 178.578125 207.695312 L 178.578125 160.519531 L 186.1875 160.519531 L 186.1875 140.671875 L 188.699219 140.671875 L 188.699219 160.519531 L 196.308594 160.519531 L 196.308594 207.695312 L 188.699219 207.695312 L 188.699219 227.542969 Z M 156.492188 259.015625 L 156.492188 242.507812 L 148.882812 242.507812 L 148.882812 203.273438 L 156.492188 203.273438 L 156.492188 186.765625 L 159.003906 186.765625 L 159.003906 203.273438 L 166.613281 203.273438 L 166.613281 242.507812 L 159.003906 242.507812 L 159.003906 259.015625 Z M 275.277344 140.671875 L 275.277344 130.167969 L 267.667969 130.167969 L 267.667969 105.199219 L 275.277344 105.199219 L 275.277344 94.695312 L 277.789062 94.695312 L 277.789062 105.199219 L 285.398438 105.199219 L 285.398438 130.167969 L 277.789062 130.167969 L 277.789062 140.671875 Z M 275.277344 140.671875 " fill-opacity="1" fill-rule="evenodd"/></g></svg>